<?xml version="1.0" standalone="no"?>
<!DOCTYPE svg PUBLIC "-//W3C//DTD SVG 1.1//EN" "http://www.w3.org/Graphics/SVG/1.1/DTD/svg11.dtd" >
<svg xmlns="http://www.w3.org/2000/svg" xmlns:xlink="http://www.w3.org/1999/xlink" version="1.1">
<metadata></metadata>
<defs>
<font id="kruti_dev_100regular" horiz-adv-x="1781" >
<font-face units-per-em="2048" ascent="1638" descent="-410" />
<missing-glyph horiz-adv-x="776" />
<glyph horiz-adv-x="0" />
<glyph unicode="&#xd;" horiz-adv-x="776" />
<glyph unicode=" "  horiz-adv-x="776" />
<glyph unicode="&#x09;" horiz-adv-x="776" />
<glyph unicode="&#xa0;" horiz-adv-x="776" />
<glyph unicode="!" horiz-adv-x="808" d="M322 1153l6 45q14 45 53 62l39 8q66 0 96 -74l8 -41q0 -82 -10 -176l-45 -467q0 -16 -4 -45l-2 -55l-80 2q0 20 -2 63t-2 63.5t-14 151.5l-33 301zM340 182q0 23 4 33l18 29q20 25 58 24q21 2 33 -6l28 -18q14 -12 19.5 -26.5t5.5 -35.5l-6 -28l-19 -27q-25 -25 -61 -25 l-29 7l-26 18l-19 27q-6 12 -6 28z" />
<glyph unicode="&#x22;" horiz-adv-x="634" d="M-25 1085v70h748v-70h-361l-36 -30l-29 -31l-10 -14l-4 -11l-15 -24l-12 -25l504 -311v-104q-72 -156 -244 -216q-61 -14 -106 -14q-154 0 -258 111q-115 117 -109 270l2 51q2 31 7 55.5t11 47.5l17 53q14 47 45 98q25 37 70 92zM184 698q0 -135 80 -219q41 -43 89 -65.5 t100 -22.5q18 0 32 2q142 21 220 201l-480 297l-30 -115z" />
<glyph unicode="#" horiz-adv-x="1228" d="M-16 1085v70h1257v-70h-913q131 -25 218 -118t87 -207q0 -127 -115 -217t-276 -90q68 -125 157 -199q45 -37 82 -55q45 -16 78 -17q82 0 141 56l31 -29q-20 -20 -57 -43l-58 -35l-53 -22l-47 -7q-137 0 -250 84q-20 14 -47 39q-43 49 -69 92q-74 121 -152 154l-2 45 l82 -20l102 -7q121 -8 211 82.5t90 206.5q0 113 -94 195q-37 39 -106 69q-59 27 -131 41zM694 762q61 57 185 59q123 2 212 -91t89 -216q0 -66 -23 -119q-37 -86 -111.5 -137t-166.5 -51q-59 0 -99 20q-10 4 -24 17l18 45l45 -17l60 -4q59 -4 112 72q47 68 47 174t-49 176 t-110 70q-25 0 -38.5 -2t-41.5 -10l-43 -13l-43 -18z" />
<glyph unicode="$" horiz-adv-x="890" d="M80 578v79h307v326h86v-326h307v-79h-307v-332h-86v332h-307z" />
<glyph unicode="%" horiz-adv-x="686" d="M270 225l6 29l19 27l27 18l34 6q17 2 29 -6l27 -18l18 -27q6 -12 6 -29l-6 -28l-16 -25q-8 -12 -25 -18l-33 -9q-25 0 -37 5l-26 18q-12 10 -19 25zM270 778l6 29l19 27l27 18l34 6q17 2 29 -6l27 -18l18 -27q6 -12 6 -29l-6 -28l-16 -25q-8 -12 -25 -18l-33 -9 q-25 0 -37 4l-26 19q-12 10 -19 24z" />
<glyph unicode="&#x26;" horiz-adv-x="768" d="M70 596v80h612v-80h-612z" />
<glyph unicode="'" horiz-adv-x="921" d="M-8 412h201q80 -64 227 -64q90 0 164.5 65.5t99.5 180.5l-20 -14l-21 -13l-25 -12l-26 -8l-29 -6q-16 0 -24 -4l-29 -5h-29q-168 0 -293 95q-119 88 -118 225q0 135 114.5 233.5t284.5 98.5q164 0 281.5 -118t117.5 -288q0 -104 -28 -200q-39 -129 -113 -211 q-106 -117 -227 -111l-45 2l-41 4l-45 12l-54 25q12 -39 45 -92q68 -86 150 -113q43 -14 82 -14q154 0 270 96l31 -41q-18 -29 -53 -51l-74 -37l-92 -22l-101 -7q-55 -4 -115.5 9.5t-105.5 33.5q-106 47 -147 121q-88 160 -211 185zM193 858q0 -61 18 -106q37 -88 131 -140 q45 -20 96 -18q33 0 58 4q67 11 133 72q80 76 80 188q0 63 -19 117q-35 96 -125 139q-47 20 -96 21q-182 0 -256 -168q-20 -45 -20 -109z" />
<glyph unicode="(" horiz-adv-x="327" d="M104 -152q16 6 27 23l21 31l14 43l4 57l-59 2v133h108v-137l-6 -72q-6 -37 -16 -51q-8 -23 -29 -41q-12 -16 -39 -33zM111 604v133h108v-133h-108z" />
<glyph unicode=")" horiz-adv-x="1382" d="M14 1085v70h1381v-70h-154v-225h-283q-137 0 -245.5 -92t-108.5 -223q0 -137 103 -226q109 -94 251 -94q125 0 216 74q0 145 -72 233l164 3q49 -90 49 -230q0 -23 -4 -51l-6 -43l-17 -43q-8 -27 -20 -45q-33 -74 -125 -127h-62l15 14l16 23l12 26l17 33l18 68l15 78 q-102 -119 -287 -105l-27 2h-33l-20 6l12 -45l4 -49q2 -35 -8 -78q-16 -57 -70.5 -125.5t-171.5 -83.5q-31 0 -49 9l-43 18q-47 27 -73 80l-21 63l-6 68l2 41l6 35q-86 -102 -192 -103q-43 0 -72 19l-29 22l-26 39q-12 23 -19 47l-4 54q-6 72 53 170q8 12 23 26l43 41l45 25 q18 6 47 10l21 -2l18 -6q14 -4 22 -23l9 -33l-6 -28q-12 -29 -48 -29l-16 2l-12 6l-13 11l-12 18l-4 14v25l-55 -78l-12 -37l-5 -33q0 -82 72 -120l37 -21l41 -6q70 0 119 74l30 57l31 -25l-31 -47l-4 -8l-4 -14l-6 -31l-2 -16q0 -92 90 -146l39 -14l41 -6q47 0 82 20 q59 27 78 111l6 55l-6 60q-129 29 -219 143q-63 80 -82 184q-6 35 -6 70q0 78 28 137q70 143 221 203q72 29 156 29l246 2v163h-1088z" />
<glyph unicode="*" horiz-adv-x="327" d="M104 975q14 6 27 20l21 31q8 12 14 43l4 59l-59 2v134h108v-138l-6 -73q-10 -59 -45 -90l-39 -35z" />
<glyph unicode="+" horiz-adv-x="0" d="M-420 -27h109v-133h-109v133z" />
<glyph unicode="," horiz-adv-x="921" d="M8 1085v70h950v-70h-264q160 -100 160 -307q0 -174 -160 -243q-55 -25 -102 -21l-25 2h-43l-41 10l-45 19l-49 30l19 52l71 -31l35 -12l33 -2q61 -4 117 51q49 49 49 127q0 43 -13.5 87t-42.5 91q-57 94 -147 145l-268 2v-569q0 -57 71 -113l86 -49l111 -37l166 -49 q147 -43 196 -94q25 -27 25 -53q0 -20 -10 -37l-31 -27q-18 -12 -47 -18l-53 -4l-103 2v45h31q12 0 23 8l16 12l8 19q0 33 -78 82l-96 41l-203 65l-59 27l-53 29l-52 36q-90 66 -90 150v534h-92z" />
<glyph unicode="-" horiz-adv-x="327" d="M113 4v133h108v-133h-108z" />
<glyph unicode="." horiz-adv-x="757" d="M-8 1085v70h778v-70h-111v-507q0 -119 -79 -207q-55 -61 -138 -78q-31 -6 -59 -6q-121 0 -203 84q-45 43 -67.5 96t-22.5 108v510h-98zM229 578q0 -101 45 -164q20 -29 50 -49q25 -12 59 -17q74 0 109 88q23 57 26 107v32v510h-289v-507z" />
<glyph unicode="/" horiz-adv-x="696" d="M74 471q0 94 55 167t147 97q-38 11 -67 29q-35 23 -53 49l-19 27l-14 32l-10 33l-2 39q-2 41 18.5 80t65.5 68q55 43 143 57q25 4 61 4q104 0 183 -49q86 -55 80 -123l-3 -27q-2 -14 -4 -22l-4 -10l-10 -21l-6 -8q-14 -18 -33 -27l-39 -8q-45 0 -76 31l-22 35l-6 39l6 41 q6 18 22 32q10 12 33 23l43 8l-8 6l-10 8l-33 13l-25 4q-12 2 -14 4l-12 2h-21q-72 0 -131 -47q-53 -53 -53 -113q0 -121 113 -172q31 -14 71 -12l39 2v-62h-61q-43 0 -80 -18q-70 -27 -109 -113q-14 -43 -14 -80q0 -92 78 -157q72 -63 166 -64q78 0 151 31q68 27 129 92 q27 29 70 92l18 -53q-47 -86 -135 -151q-100 -76 -211 -93q-27 -4 -63 -4q-147 0 -242 82q-102 86 -102 207z" />
<glyph unicode="0" horiz-adv-x="788" d="M47 612q0 125 77 223.5t200 120.5q31 4 67 7q76 2 133 -27q96 -37 155.5 -130t59.5 -200q0 -137 -100 -237.5t-248 -100.5q-145 0 -244.5 100.5t-99.5 243.5zM188 612q0 -125 58 -206q29 -43 67.5 -66t77.5 -23q97 8 148 86q61 88 61 209q0 76 -16 113q-16 72 -68 127 q-57 61 -125 61q-80 0 -141.5 -86t-61.5 -215z" />
<glyph unicode="1" horiz-adv-x="921" d="M135 1024q0 74 48 135.5t120 89.5q45 16 103 19q123 2 214 -85t91 -204q0 -227 -213 -369q-70 -45 -154 -78l221 -243q104 -96 105 -209l-6 -43q-4 -12 -15 -19l-164 2q12 8 15 17l4 43q0 57 -8.5 89t-28.5 56l-270 310q39 10 77 36l74 50l64 55q35 31 55 59 q-141 0 -236.5 85t-95.5 204zM283 1024q-1 -39 30 -98q20 -41 93 -97q35 -27 92 -51q68 84 67 201q0 106 -49 176t-110 70q-47 0 -87 -58q-20 -31 -28 -67z" />
<glyph unicode="2" horiz-adv-x="962" d="M96 594v45l19 -2h16l14 -2h13l26 -6l41 -8q27 -4 80 -17l105 -20l30 -2q109 -8 190 84t81 217q0 57 -23 100q-37 96 -158 141q-55 20 -108 21q-223 0 -307 -80l-19 39q168 117 344 121q82 2 156 -27q158 -59 221 -180q33 -63 33 -135q0 -115 -71.5 -209t-182.5 -133 q-86 -31 -156 -27l-39 2l-41 19q70 -43 142 -158q43 -70 69 -117l21 -37q8 -16 22 -26l21 -17l20 -4q66 0 103 49l30 -28q-10 -20 -28 -37l-43 -29l-55 -20l-58 -7q-88 0 -182 115q-37 41 -62 86q-147 264 -264 289z" />
<glyph unicode="3" horiz-adv-x="880" d="M47 268v39l16 -2h17l12 -2h12l29 -6l43 -6l143 -27l72 -8q59 0 104.5 17.5t86.5 50.5q80 68 80 165q0 102 -83 170t-188 70l-123 2v62h123q94 0 151.5 55t57.5 131q0 80 -70 129q-18 20 -71 41q-43 14 -86 14l-62 -6q-29 -2 -57.5 -12t-54.5 -27l-54 -33l-36 37 q113 100 282 103q135 2 232.5 -71t97.5 -175q0 -41 -16 -74q-29 -74 -117 -117q-29 -14 -94 -28q59 -10 124 -39q182 -80 183 -207q0 -127 -121 -219q-61 -47 -132 -67.5t-157 -20.5l-92 8q39 -18 84 -51q29 -27 96 -86l33 -29l27 -12q51 0 67 16l25 -28l-43 -23l-43 -12 l-53 -8l-58 -5q-88 -6 -246 187q-27 33 -69 59z" />
<glyph unicode="4" horiz-adv-x="993" d="M100 1133q0 41 33 65l41 25l55 20l43 -35q-14 -6 -24 -22l-21 -33l-16 -18q0 -98 76 -207q70 -102 200 -180q238 164 314 307q23 43 22 78l-4 26l-12 23l-21 16l-24 8l18 39q33 -4 58 -16q55 -16 80 -60q6 -10 10 -36q0 -98 -93.5 -216t-267.5 -243q94 -55 154 -148 q43 -66 55 -131q4 -20 4 -47q0 -106 -77.5 -175t-184.5 -69q-63 0 -102 17q-162 66 -162 227q0 94 47 191q27 53 61 94q43 51 82 84q-162 92 -253 203.5t-91 212.5zM377 336q0 -121 92 -178q29 -12 61 -13q33 5 58 15q55 37 82 119q14 43 14 88q0 35 -10 75q-4 35 -29 74 q-35 66 -108 127q-160 -160 -160 -307z" />
<glyph unicode="5" horiz-adv-x="952" d="M76 821v406h141v-404q0 -61 19 -108q35 -92 122 -144q45 -20 86 -20q109 0 142 24q-96 96 -140.5 190.5t-44.5 197.5q0 61 19 108q37 96 133 135q45 18 94 19q78 0 144 -62q55 -55 81 -135q18 -57 19 -127q0 -225 -160 -326q61 -74 62 -184q0 -115 -80 -203 q-53 -59 -135 -77q-29 -6 -54 -7l-184 2v60h104q80 0 136 72q47 59 63 145q4 23 4 57v27l-6 29l-12 26q-39 -16 -84 -24l-101 -9q-68 -6 -141 23q-147 55 -201 182q-27 61 -26 127zM547 963q-10 -139 123 -308q80 96 80 246v74q-6 43 -27 129q-27 70 -76 78q-37 0 -72 -64 l-22 -71z" />
<glyph unicode="6" horiz-adv-x="942" d="M86 514q0 82 74 152q49 47 135 75q23 8 61 19q-98 37 -149 94l-27 31l-18 30l-12 29l-3 35q-6 100 99.5 172t249.5 74q130 2 288 -92l-24 -46q-84 76 -244 76q-86 0 -156 -53q-35 -27 -50 -61.5t-15 -69.5q0 -109 123 -174q45 -14 78 -14l122 2v-62h-122q-104 0 -185 -69 q-31 -27 -59 -74q-18 -37 -19 -86q0 -92 74 -166q37 -31 87 -50.5t102 -17.5l63 2q33 2 55 11l45 18l39 31l4 35v20l-2 14l-2 11l148 2q0 -139 -68 -260q-72 -133 -190 -187l-31 31l47 45l41 65q18 31 31 76l22 86q-61 -61 -202 -61q-174 0 -287 86q-63 47 -93 101.5 t-30 119.5z" />
<glyph unicode="7" horiz-adv-x="921" d="M47 1176v51q43 0 78.5 -10t64.5 -33q51 -33 60 -99v-569q0 -145 74 -246q35 -51 82 -78.5t102 -27.5q84 0 149 88l27 47l21 51l12 58l4 63v94q-20 -16 -47 -24l-56 -9q-104 0 -174.5 99.5t-70.5 251.5q0 76 16 131q41 135 135 186q45 25 94 25q94 0 169 -99.5t75 -242.5 v-410q0 -156 -104 -260q-55 -55 -121 -82t-141 -27q-162 0 -274.5 121t-112.5 289l-5 623l-12 20q-6 8 -20 14zM518 883l2 -62l6 -55l11 -51l16 -47q14 -41 39 -66q20 -16 49 -20l39 8q16 4 41 22v273q0 123 -29 207q-27 76 -74 84q-39 0 -71 -86l-23 -97z" />
<glyph unicode="8" horiz-adv-x="1034" d="M143 410q0 59 35 110q33 66 101 117l600 571l79 -73l-569 -539q-96 -113 -104 -186q0 -78 47 -143.5t119 -96.5q43 -18 102 -18q109 0 186.5 74.5t77.5 183.5l141 2q0 -104 -75 -183q-68 -70 -174 -104q-63 -20 -156 -21q-172 0 -291 86t-119 220z" />
<glyph unicode="9" horiz-adv-x="737" d="M25 918q-4 51 24 116q41 88 124 138.5t181 52.5q131 2 228.5 -88t97.5 -219q0 -123 -96 -213q-102 -96 -230 -93l-61 2q63 -33 135 -79t113 -84q96 -90 96 -164q0 -63 -76 -131q-80 -51 -186 -52q-186 0 -326 140l37 26q152 -106 268 -106q86 0 131 76q6 16 11 47 q0 117 -127 221q-47 37 -101 70q-78 45 -129 98q-23 23 -45 55l-31 45l-22 49l-12 45zM172 918q0 -109 51 -180.5t131 -69.5q39 2 70 16q33 23 59 55q55 70 56 179q0 102 -52 182q-27 39 -61.5 57.5t-71.5 18.5q-63 0 -131 -76q-51 -72 -51 -182z" />
<glyph unicode=":" horiz-adv-x="1280" d="M-12 1087v66h1306v-66h-962q121 -25 209 -114q96 -94 96 -213q0 -127 -114.5 -217t-276.5 -90q68 -125 157 -199q45 -37 85 -54.5t77 -17.5q43 0 76 13.5t64 42.5l30 -41l-51 -41l-55 -29l-27 -10l-29 -6l-16 -5h-12l-17 -2h-14q-229 0 -362 228q-61 104 -152 139v45 l82 -20l102 -7q84 -4 159 47.5t110 131.5q20 51 20 110q0 176 -186 266q-55 25 -133 41zM674 612q0 55 18 99q43 100 148 135q35 10 80 12q127 4 217 -97.5t90 -228.5q0 -63 -23 -129q-41 -121 -155 -208q-57 -43 -129 -74l-19 45q68 29 125 94q23 27 37 49l27 45l18 49 l10 52l4 59q4 53 -26 123q-4 8 -21 33q-53 66 -112 65q-37 0 -56 -10q-49 -8 -73 -61q-8 -18 -13 -52q0 -61 31 -100q16 -23 35 -33l45 -8q35 8 61 31l31 -29q-33 -33 -66 -49q-43 -14 -75 -14q-98 0 -150 59q-59 51 -59 143z" />
<glyph unicode=";" horiz-adv-x="1044" d="M-18 1085v70h1079v-70h-158v-839q0 -41 31 -72l33 -22l39 -7v-41h-349v43q70 0 97 58l8 39v118q-100 -137 -307 -137q-174 0 -302 130t-128 319v63l84 -16l143 -4q55 -2 113 43q16 16 34 49q12 29 13 61q0 57 -47 125q-43 57 -125 88zM166 668q0 -82 22 -142 q51 -135 172 -194q61 -29 125 -27l43 2q27 2 39 4l37 8l39 15l64 37q29 16 55 51v663h-387q41 -6 71 -28q84 -47 109 -158q4 -18 4 -41q1 -135 -153 -201q-63 -16 -93 -14l-75 4l-9 -2l-8 2h-10l-8 4l-19 6z" />
<glyph unicode="&#x3c;" horiz-adv-x="1054" d="M-2 1085v70h1098v-70h-166v-262h-391q-137 0 -238 -86q-106 -90 -106 -223q0 -143 115.5 -256t289.5 -113q-72 51 -106.5 109.5t-34.5 136.5q0 117 83 200t203 83q59 0 107 -23q104 -39 156 -153q20 -51 20 -107q0 -117 -80 -201q-59 -63 -143 -81q-33 -6 -60 -7l-153 2 q-258 4 -397 109q-147 111 -148 301q0 145 123 260q20 16 63 47l72 35q43 16 76 18l88 9l315 2v200h-786zM600 391q0 -104 45 -176q35 -61 100 -70q55 0 101 72q41 63 41 174q0 102 -41.5 174t-100.5 72q-55 0 -102 -72l-33 -80l-10 -53v-41z" />
<glyph unicode="=" horiz-adv-x="972" d="M-14 1085v70h1011v-70h-159v-839q0 -41 30 -72l35 -22l39 -7v-41h-348v43q51 0 74 27l20 31l8 39v370l-532 -387l-49 49l397 289q-55 102 -147 197q-117 121 -207 121q-96 0 -135 -56l-19 33q106 121 191 121q55 0 112 -25q106 -49 207 -174q70 -86 104 -145l78 63v385 h-710z" />
<glyph unicode="&#x3e;" horiz-adv-x="1351" d="M-6 1085v70h1368v-70h-160l6 -880q6 -18 19 -31l35 -22l38 -7v-41h-344v43q47 0 70 27l21 31l8 39v278h-191q4 -4 8 -24l5 -45q0 -94 -61.5 -167t-156.5 -102q-70 -23 -133 -20l-123 2l13 -12l14 -9l12 -12l17 -8l24 -16l31 -17l31 -14l28 -8q16 0 25 -4h37l37 4 q12 2 18 4l37 12l21 6l24 10l19 -45l-46 -24l-51 -21l-59 -12l-60 -4q-51 -4 -122 10q-59 10 -99 35q-86 31 -176 141q-61 74 -97 108t-63 40v39h201q37 -74 143 -162l103 2q63 2 100 14q100 35 144 135q20 45 20 95q0 59 -53 112q-57 47 -131 47l-158 2q-141 2 -207 45 l-37 25l-24 29l-17 30l-4 35q0 66 94.5 115t231.5 51l244 2v139h-674zM250 778q0 -37 67 -73l76 -23l90 -8l105 2q96 2 170 -39q37 -23 63 -55l234 2v501h-240v-200h-332q-53 0 -88 -11q-49 -6 -76 -22q-29 -8 -53 -33q-12 -16 -16 -41z" />
<glyph unicode="?" horiz-adv-x="614" d="M-12 1085v70h717v-70h-240q-102 -25 -178 -86q-31 -27 -51 -57q-12 -25 -17 -59q0 -117 125 -172q41 -14 84 -13l80 2v-43h-62q-49 0 -88 -16q-88 -27 -122 -98q-16 -33 -17 -72q0 -39 21 -76q27 -49 82 -78q4 -2 41.5 -16t82.5 -14q172 0 289 92v-47l-86 -68l-86 -45 q-23 -12 -90 -29l-88 -8q-76 0 -125 17q-131 43 -178 135q-23 43 -23 94q0 127 134 209q39 25 88 37q-88 0 -142 59q-29 31 -44 71t-15 79q0 61 67.5 116.5t176.5 83.5z" />
<glyph unicode="@" horiz-adv-x="471" d="M68 -12l241 1050h74l-242 -1050h-73z" />
<glyph unicode="A" horiz-adv-x="737" d="M180 106v44q10 -2 19 -2q52 0 77 59l9 39v841h141l6 -880q8 -18 23 -31l32 -22l41 -7v-41h-348z" />
<glyph unicode="B" horiz-adv-x="1044" d="M0 1085v70h1057v-70h-228v-243h-122q123 -33 205.5 -132.5t82.5 -220.5q0 -164 -137 -272q-143 -115 -336 -115q-102 0 -179 29t-150.5 91.5t-107.5 133t-34 158.5q0 145 134 256t337 113l166 2v200h-688zM199 489q0 -141 94 -239t229 -98q23 0 51 4q93 8 179 94 q96 96 96 239q0 139 -97.5 238.5t-228.5 99.5q-209 0 -301 -206q-22 -49 -22 -125v-7z" />
<glyph unicode="C" horiz-adv-x="819" d="M-31 1085v70h871v-70h-871zM91.5 809q68.5 98 176.5 143q70 29 154 29q109 0 207 -42t174 -130l-43 -29q-113 121 -264 121l-64 -6q-35 -4 -57 -14l-56 -27l-51 -33l473 -391l54 84l16 37l10 43l43 2q-10 -82 -53 -158q-57 -102 -159 -168q-99 -64 -211 -63h-7 q-176 4 -291 110q-120 110 -120 274q0 120 68.5 218zM170 594q0 -70 23 -119q53 -113 178 -164q57 -24 113 -24h12q98 4 215 104l-473 389q-49 -68 -64 -135q-4 -20 -4 -51z" />
<glyph unicode="D" horiz-adv-x="1044" d="M-4 1085v70h1051v-70h-234v-243q129 102 262 102v-84q-37 0 -53 -4l-33 -2l-28 -6l-33 -6l-62 -19q-27 -8 -53 -26v-551l6 -41q6 -18 19 -31l34 -22l39 -7v-41h-344v43q47 0 70 27l20 31l9 39v106q-139 -106 -265 -106q-143 0 -243 102q-106 109 -107 248q0 150 103 248 q53 49 114 76q62 27 116 27q9 0 17 -1l39 -2q14 0 36 -2t38 -10l37 -15q41 -16 61 -32l54 -43v245h-670zM199 594q0 -113 76.5 -188.5t187.5 -75.5h24l48 4l26 8q31 10 51 20l54 29v408l-50 24l-53 21l-53 10l-47 4q-9 1 -18 1q-44 0 -85 -21q-74 -29 -117.5 -96.5 t-43.5 -147.5z" />
<glyph unicode="E" horiz-adv-x="696" d="M-35 1085v70h756v-70h-215v-366h246v-74h-246v-153q0 -82 -41 -156t-111 -107q-45 -22 -90 -22h-4q-55 0 -96 18q-98 39 -133 133q-16 43 -17 95q0 59 21 108q35 94 131 135q43 20 94 21l105 2v366h-400zM156 453q0 -55 8 -80q4 -37 22 -68q25 -53 74 -61q67 6 96 125 l9 84v192h-43q-37 0 -64 -16q-63 -27 -90 -101q-12 -35 -12 -75z" />
<glyph unicode="F" horiz-adv-x="706" d="M6 637q48 -25 168 -25h35q229 5 305 148l-29 -10l-34 -9l-76 -4h-15l-141 34q-78 38 -113 103q-20 39 -20 89q0 84 90 155q98 63 215 64q125 0 216 -67.5t91 -170.5q0 -160 -151 -274q-158 -119 -375 -119q0 -162 186 -246q55 -18 119 -18q104 0 191 57q45 29 82 72 q12 14 43 57q20 29 28 41v-53q-39 -98 -127 -166t-194 -84q-27 -4 -64 -4q-178 0 -304 124t-126 306zM233 963q-1 -77 45 -133q42 -53 104 -52h9l82 4l55 15l17 39l8 32l6 78q1 7 1 13q0 60 -48 122q-49 63 -121 64q-98 0 -147 -113q-10 -35 -11 -69z" />
<glyph unicode="G" horiz-adv-x="1423" d="M-14 1087v66h1466v-66h-362v-167q94 -12 167 -89q66 -66 99 -163q22 -67 22 -130v-6q0 -88 -28 -167q-57 -164 -199 -230q-63 -31 -141 -31q-70 0 -127 21q-16 4 -43 16l-74 43q-37 31 -61 60q-78 -96 -209 -131l-80 -9q-152 0 -258 119q-55 59 -84 133q-28 71 -28 135 q0 12 1 23l6 78q4 63 53 143l50 64q41 53 118 88q66 31 142 31q190 0 305 -140q106 125 227 140v169h-962zM195 514q0 -160 63 -262q66 -107 152 -107h6q43 2 88 27q47 33 74 86l28 57l21 64l12 72l6 127l10 47l19 49l31 55q-43 49 -117 88q-53 25 -129 35 q-104 0 -184 -97.5t-80 -240.5zM721 287q61 -57 118.5 -84t127.5 -27q80 0 144.5 57.5t98.5 163.5q20 66 21 135q0 72 -19 146q-31 119 -116 178q-41 27 -86 27q-92 0 -160 -105q-51 -78 -64 -174q-4 -31 -4 -72v-28v1q-1 0 -6 -75q-2 -12 -8 -33l-18 -59z" />
<glyph unicode="H" horiz-adv-x="614" d="M29 948q0 63 43 119.5t105.5 76t115.5 19.5q55 0 100 -16q102 -37 144 -117q20 -41 20 -86v-330h145v-61h-145v-123q0 -84 -74 -158q-77 -65 -169 -65h-3q-164 0 -229 117q-16 37 -16 73q0 86 67.5 149.5t177.5 65.5l105 2v117l-49 -12l-74 -2h-12q-51 0 -88 16 q-96 41 -146 125q-18 41 -18 90zM170 944q0 -82 35 -125q39 -53 88 -53q51 6 84 49q39 51 39 129q0 39 -10 62q-10 59 -64 94q-20 12 -49 16q-25 0 -47 -14l-39 -37q-14 -18 -29 -55zM213 391l6 -59q12 -51 53 -78q12 -6 39 -10q27 4 41 10l35 33l21 47l8 57v162h-19 q-68 0 -131 -49q-53 -53 -53 -113z" />
<glyph unicode="I" horiz-adv-x="727" d="M4 1087v66h748v-66h-367q-172 -215 -172 -389q0 -90 41 -168q45 -84 121 -118q47 -21 94 -21h8l39 2l41 13l41 18l41 27q76 49 143 161v-77q-59 -106 -146 -168t-190 -62q-158 0 -266 113q-108 112 -108 262v18l2 50q2 31 8 51q4 33 10 49l19 49q16 45 49 96l30 47 q12 20 35 45z" />
<glyph unicode="J" horiz-adv-x="1198" d="M86 645l195 31l32 10q-94 41 -155 127q-59 78 -60 166q0 98 87 172t218 74q129 0 218.5 -74t89.5 -172q0 -82 -64 -170q-33 -45 -72.5 -76t-95.5 -59l125 -35l39 -8l35 -10l33 -9l202 125v350h-141v66h442v-66h-159v-841q0 -41 30 -72l35 -22l39 -7v-39h-344v41l21 -2 q14 2 18 5l14 8l17 14l20 33l8 39v426l-661 -412l-49 49l446 277l-139 28q-20 2 -61 11l-46 14l-112 -29l-193 -33zM240 963q0 -160 163 -258q76 46 123 114l19 33l14 37l8 35l4 39q0 84 -50 151.5t-118 67.5q-115 0 -151 -135q-12 -45 -12 -84z" />
<glyph unicode="K" horiz-adv-x="1269" d="M-18 1087v66h1306v-66h-153l6 -882q6 -18 20 -33l31 -20l41 -7v-39h-344v41q70 0 92 58l8 39v579h-53q-25 0 -53 4l-56 9l-63 14l-246 51q-78 16 -137 17q-68 0 -117 -35q-41 -29 -49 -86q0 -25 12 -49q33 -49 101 -66l71 -8l105 2q45 0 102 -19q66 -23 113 -71.5 t47 -114.5q0 -94 -113.5 -160.5t-271.5 -66.5l65 -49l72 -39l23 -11l32 -10l19 -6l18 -2l17 -4h18q31 0 45 4l35 18l31 -22q-12 -18 -37 -37l-47 -27q-20 -12 -58 -18l-61 -4h-49q-16 4 -25 4l-65 18l-62 31l-57 45l-66 58l-67 49l-72 41l-78 34l19 52l22 -15l33 -14l41 -16 l47 -17l35 -8l37 -6q25 0 37 -4l36 -2h18q71 0 152 28q74 25 115 84q23 33 23 72q0 61 -68 98q-57 41 -160 43l-80 2q-123 4 -188 54q-37 27 -59.5 60.5t-22.5 68.5q0 74 94 129q59 35 170 49q29 4 53 5q8 0 15 -1l51 -2q37 -2 55 -4q35 -2 60 -8l63 -15l246 -51l133 -16 v204h-1007z" />
<glyph unicode="L" horiz-adv-x="870" d="M10 1087v66h883v-66h-547q129 -25 218 -121t89 -206q0 -135 -110.5 -233.5t-276.5 -98.5q25 -39 72 -104q68 -80 164 -131q48 -17 80 -17h4l32 2l37 12q18 6 37 21l35 27l31 -41q-16 -20 -47 -41l-56 -29l-61 -18l-64 -5q-9 -1 -18 -1q-85 0 -172 53q-45 27 -80 63 q-27 29 -65 86q-76 141 -172 166v45l34 -12l47 -8l101 -4h11q116 0 198 80q86 84 86 206q0 59 -19.5 105.5t-66.5 91.5q-82 80 -228 110zM635 565l18 74l27 -16l29 -11l67 -4l74 6q43 10 74 29v-90q-33 -16 -66 -25l-70 -8l-40 2q-18 0 -35 8z" />
<glyph unicode="M" horiz-adv-x="1044" d="M-14 1087v66h1079v-66h-176v-245h-326q-51 0 -80 -11q-39 -4 -63 -22q-60 -21 -60 -76q0 -34 60 -67l65 -23l78 -6l197 2q70 0 135.5 -40t95.5 -101q18 -43 19 -88q0 -125 -123 -215.5t-305 -90.5q-209 0 -369 142q-84 72 -133 162q-45 82 -70 204l62 2q16 -100 57 -172 q92 -166 264 -229q80 -31 170 -31q72 0 129 19q70 23 123 81t53 128q0 63 -51 114t-131 51l-166 3q-139 2 -229 47q-96 47 -96 123q0 59 75 108q68 45 183 45l276 2v184h-743z" />
<glyph unicode="N" horiz-adv-x="1044" d="M-20 1087v66h1073v-66h-1073zM16 410q0 80 54 141q47 55 143 86q-172 60 -172 203q0 63 81 113.5t202 50.5q31 0 59 -11l88 -30l-25 -43l-34 16l-47 8q-41 0 -72 -10q-53 -10 -94 -66q-16 -20 -17 -47q0 -98 111 -143q33 -10 62 -10h10l61 2v-62h-72q-76 0 -135 -59 q-20 -25 -37.5 -66t-17.5 -73q0 -109 100.5 -187t243.5 -78q74 0 127 17q117 35 194 129q33 39 58 106l-92 2q-78 2 -141.5 48.5t-88.5 119.5q-16 51 -16 107q0 115 70.5 202t175.5 87q106 0 185 -107.5t79 -249.5q0 -203 -162 -352.5t-395 -149.5q-213 0 -346 86 q-139 90 -140 220zM690 674q-1 -8 -1 -15q0 -64 44 -143q23 -33 46.5 -46t58.5 -17l61 2l14 65l5 92v74q-4 49 -31 141q-23 82 -80 91q-41 0 -80 -70q-20 -35 -29 -80z" />
<glyph unicode="O" horiz-adv-x="686" d="M-63 1087v66h759v-66h-759zM-6 606q0 158 116.5 266.5t280.5 108.5q88 0 178 -39q43 -18 86 -53q31 -25 72 -68l-16 -53q-113 133 -246 133q-137 0 -227 -86q-98 -90 -99 -221q0 -70 23 -119q53 -113 178 -164q55 -24 120 -24h5q119 0 246 123l16 -41 q-125 -162 -319 -162h-5q-31 0 -79 8q-111 19 -207 109q-123 113 -123 282z" />
<glyph unicode="P" horiz-adv-x="675" d="M-39 1087v66h729v-66h-729zM-14 860v62h630v-62h-120q-84 0 -159 -54t-110 -134q-20 -47 -20 -109q0 -111 80 -186q33 -31 88 -60q47 -18 100 -18q160 0 246 98v-47l-68 -69q-53 -43 -108 -68q-18 -8 -49 -18q-47 -10 -82 -11q-152 0 -246 105q-102 109 -102 256 q0 86 73 180q78 82 203 133z" />
<glyph unicode="Q" horiz-adv-x="1249" d="M-53 1087v66h1347v-66h-618v-233l51 37l53 29q29 12 60 18l63 6q129 0 227.5 -102.5t98.5 -247.5q0 -139 -94.5 -243.5t-231.5 -104.5h-16l-15 2h-16l-16 4l-35 12q-23 8 -43 23v45l47 -19l51 -4h11q82 0 149 80q49 61 63 143q4 25 4 62q0 63 -18 117q-25 72 -82 122 t-127 50q-78 0 -184 -86v-549q0 -43 31 -74l34 -22l39 -7v-39h-350v41q45 0 74 25q14 12 22 33l9 41v153l-58 -43l-57 -26l-27 -11l-28 -6l-29 -4l-29 -2q-9 -1 -19 -1q-62 0 -126 35q-72 40 -99 105q-18 39 -18 86v555h-98zM186 578q0 -78 49 -132.5t117 -54.5q63 0 183 68 v628h-349v-509z" />
<glyph unicode="R" horiz-adv-x="675" d="M-20 1087v66h712v-66h-712zM47 514q0 147 119 258q61 55 137 84q74 27 144 27h18l43 -2l29 -2l24 -7l37 -6l61 -18q35 -10 62 -27v-53q-74 47 -225 53h-12q-60 1 -106 -17q-50 -20 -99 -63q-90 -78 -91 -190q0 -178 142 -356l-123 -89q-160 176 -160 408z" />
<glyph unicode="S" horiz-adv-x="0" d="M-864 1485v37h166q39 0 63 -13q25 -4 53 -26l189 -223l61 -50q23 -10 45 -14l103 2v-45h-230q-16 4 -24 10l-13 6l-14 9l-12 8l-12 10l-218 246l-47 31l-18 6l-25 4zM-614 1595v43h221q31 0 58.5 -19.5t47.5 -55.5l133 -232q35 -59 95 -63l16 2v-41h-141q-63 0 -90 59 l-150 246q-23 51 -90 59z" />
<glyph unicode="T" horiz-adv-x="931" d="M-20 1087v66h956v-66h-956zM10 821l43 21q53 -221 178 -363.5t252 -142.5q88 0 157 63.5t69 151.5q0 98 -64 176q-61 72 -162 94l-61 2v62h551v-62h-348q98 -41 166 -121q71 -88 71 -188q0 -113 -106 -205q-98 -84 -254 -84q-162 0 -299 166t-193 430z" />
<glyph unicode="U" horiz-adv-x="860" d="M-43 1087v66h926v-66h-926zM12 532q0 109 64.5 196t167.5 128q68 27 147 27q233 0 410 -99q55 -31 112 -79v-66q-72 76 -307 139q99 -78 99 -246q0 -139 -99 -241q-53 -55 -110.5 -81t-135.5 -26q-152 0 -245 101q-102 109 -103 247zM154 532q0 -133 63 -219 q31 -45 64 -67q41 -20 79 -21q41 5 76 21q76 45 111 168q16 59 16 118q0 80 -16 117q-16 72 -64 127q-55 63 -123 64q-88 0 -147 -87t-59 -221z" />
<glyph unicode="V" horiz-adv-x="972" d="M-25 1087v66h988v-66h-134v-264h-288q-139 0 -246 -94q-49 -43 -77 -98.5t-28 -116.5q0 -137 107 -235q98 -94 244 -95q221 0 338 146l47 -29q-68 -94 -190 -145.5t-257 -51.5q-190 0 -319 113t-129 272q0 86 28 150q70 154 224 215q72 29 153 29l246 2v202h-707z" />
<glyph unicode="W" horiz-adv-x="0" d="M-729 1532l145 2q0 -72 37 -141.5t98 -98.5q39 -20 89 -20q84 0 145 60.5t78 144.5q4 23 4 53l131 2q0 -96 -55 -172q-20 -29 -47 -47l-56 -39l-59 -27q-25 -10 -66 -18l-75 -4q-11 -1 -22 -1q-128 0 -239 87q-109 86 -108 219z" />
<glyph unicode="X" horiz-adv-x="788" d="M-10 1085v68h807v-68h-455q80 -14 154 -55q233 -131 233 -379q0 -147 -113 -260l-59 -49l-63 -33l-72 -20l-80 -6q-10 -1 -19 -1q-69 0 -147 38q-88 42 -121 112q-20 43 -20 96q0 104 86 175t203 71q66 0 137 -45q16 -8 22 -14q39 -31 92 -111l7 72v12q0 50 -29 121 q-57 135 -203 221q-59 35 -149 53zM174 528v-7q0 -47 24 -97q26 -53 68 -78q23 -10 58 -14q28 4 53 14q51 29 78 107l10 45v30q0 76 -39 138q-35 53 -102 61q-33 0 -55.5 -13.5t-49.5 -45.5l-18 -31l-15 -35l-10 -37z" />
<glyph unicode="Y" horiz-adv-x="962" d="M-6 1085v68h973v-68h-973zM55 528q0 178 114 296t273 118q262 0 334 -184q12 33 29 49l45 43q29 20 65 33l82 28v-53q-82 -12 -142 -110.5t-60 -235.5l-45 2q0 94 -37 178q-41 92 -115 137q-47 27 -94 27q-94 0 -174 -63q-70 -57 -111 -150q-22 -49 -22 -124v-7 q0 -141 94 -240q97 -100 223 -100h14l39 2l41 12q23 6 41 21l35 26l18 -40q-39 -47 -86 -71t-112 -24q-186 0 -317.5 126t-131.5 304z" />
<glyph unicode="Z" horiz-adv-x="0" d="M-356 1427q0 45 22 80q49 96 203 125q14 2 57 4l60 2v-61h-62q-25 0 -50.5 -11.5t-45.5 -35.5q-35 -33 -43 -103q0 -139 141 -264l-143 2q-139 119 -139 262z" />
<glyph unicode="[" horiz-adv-x="1280" d="M-49 1085v68h1433v-68h-1056q72 -27 116 -61q102 -55 152 -160q20 -45 20 -90q0 -133 -114 -229q-57 -47 -123 -70.5t-150 -23.5q61 -123 151.5 -198t162.5 -75q35 0 61 10l66 33q39 25 59 53l53 70q-74 90 -96 195q-8 39 -8 71q0 152 108.5 260.5t260.5 108.5 q70 0 140 -28.5t120 -80.5q109 -111 108 -260q0 -74 -29 -143q-59 -143 -200 -201q-68 -27 -139 -26q-139 0 -234 73q-82 -147 -235 -200q-57 -14 -84 -15h-33l-43 2l-41 13l-43 18l-43 27q-37 23 -79 69.5t-69 98.5l-37 51l-38 41q-35 37 -84 49l-2 47q20 -12 69 -22 l117 -7q115 -6 205 84t90 205q0 49 -17 92q-39 100 -124 162q-43 31 -107 55zM819 610q0 -117 78 -200.5t186 -83.5q113 0 192 85t79 199q0 115 -78 201t-193 88q-106 2 -185 -87t-79 -202z" />
<glyph unicode="\" horiz-adv-x="1167" d="M174 963q0 115 119 198q82 57 211 76q31 4 86 6q94 2 165.5 -23.5t141.5 -82.5q129 -106 129 -254q0 -129 -145 -236q-43 -31 -76 -43l-82 -29q-43 -14 -94 -18l-101 -6l-110 -213q-12 -14 -31 -25l-35 -8q-53 0 -57 55l92 297h123q168 0 296 69t128 175q0 70 -84 127 q-90 57 -223 57q-131 0 -231.5 -48t-100.5 -119l2 -11l18 -10l58 -8l41 8l26 8l33 15l43 24l27 8q23 0 53 -34l8 -21l-4 -16l-8 -15l-14 -16l-19 -10l-108 -31l-50 -10l-39 -2q-72 -4 -135 47q-23 23 -38 53.5t-15 65.5zM178 53q0 82 43 136.5t107 54.5q18 0 26 -6l27 -19 l18 -26q6 -12 7 -29q0 -76 -39 -131.5t-103 -55.5l-37 7l-26 16q-12 6 -19 23z" />
<glyph unicode="]" horiz-adv-x="481" d="M78 199l6 39q12 37 55 53l41 8q41 0 72 -39l22 -41l9 -51q0 -57 -7.5 -88t-27.5 -66l-45 -53q-20 -25 -64 -53l-35 43q45 27 58 90q4 20 4 51l-35 6l-29 23q-12 16 -18 37z" />
<glyph unicode="^" horiz-adv-x="403" d="M86 1178l2 41q2 25 4 36l8 33l15 35q16 31 38.5 55.5t55.5 46.5l51 -28l-27 -25q-8 -6 -22 -37l-12 -37l-4 -45q14 -2 18 -4l18 -4l17 -8l18 -10q12 -16 19 -35l8 -35q0 -19 -8 -35l-21 -26l-37 -17l-37 -4l-40 6q-18 6 -35 23l-23 33z" />
<glyph unicode="_" horiz-adv-x="1392" d="M-25 1153h1426v-68h-651v-493l288 143q-16 18 -32 45q-6 18 -11 58q0 53 47 100q23 18 52 31q37 10 67 10q27 0 45 -8l41 -19q31 -20 37 -65l-6 -31l-18 -31l-29 -30l-39 -31l55 -74l41 -74l25 -75l8 -74q0 -47 -16 -82q-23 -74 -113 -135q-31 -23 -92 -47l-25 33 q49 29 78 88q27 72 27 143q0 59 -29 113q-18 33 -33 49l-49 53l-319 -164v-276q0 -41 30 -72l35 -23l39 -6v-41h-350v43q51 0 76 25l20 31l8 41v217l-540 -277l-31 62l405 211l-80 200q-27 70 -98 146q-49 53 -98 57l-33 -4l-33 -12l-32 -19l-31 -26l-45 57l55 37l55 31 l21 8l24 8l23 4l27 2q92 6 194 -117q106 -129 174 -313l43 18v555h-624z" />
<glyph unicode="`" horiz-adv-x="0" d="M-571 -164q0 90 96 160q66 47 160 61q29 4 69 4h148l-2 -59h-148q-125 0 -168 -104q-14 -33 -14 -62q0 -70 53 -127t131 -57h207v-62h-209q-131 0 -227 72t-96 174z" />
<glyph unicode="a" horiz-adv-x="12" d="M-272 1432l4 26l10 23q8 18 33 26q12 6 43 11l26 -5l23 -10q16 -10 29 -33l8 -43l-2 -26l-13 -23q-10 -14 -30 -28l-45 -9l-27 2l-23 13q-31 23 -36 76z" />
<glyph unicode="b" horiz-adv-x="972" d="M2 1085v68h997v-68h-135v-202h-368q-57 0 -97 -11q-49 -6 -77 -22q-61 -18 -72 -76q0 -20 16.5 -35.5t55.5 -36.5l77 -22l97 -8l141 2q47 0 108 -19q174 -53 175 -196q0 -96 -80 -176q-68 -66 -170 -101q-66 -22 -139 -22h-17l-98 2q139 -131 221 -131q160 0 270 98 l31 -29q-41 -41 -84 -69l-86 -41q-45 -20 -127 -35q-12 -2 -41 -2q-96 0 -197 55q-90 49 -196 170l-49 55l-49 43l-48 31l-38 19v39h208l19 -33l29 -33l81 -76h93q139 0 231 62q100 66 100 166q0 55 -55 110q-27 27 -58.5 38t-70.5 11l-209 2q-68 0 -110 9q-111 31 -152 88 q-20 35 -20 65q0 66 96 117t229 51l289 2v141h-721z" />
<glyph unicode="c" horiz-adv-x="1116" d="M25 1087v66h1091v-66h-153l6 -880q6 -18 18 -31l35 -22l39 -7v-41h-342v44q8 -2 15 -2q28 0 52 24l21 35l8 39v135q-111 -172 -323 -172q-170 0 -291 110.5t-121 274.5q0 156 119 274l63 50l70 34l74 21l86 8q92 0 181 -43t142 -117v266h-790zM227 594q0 -70 23 -119 q53 -113 178 -164q57 -24 113 -24h12q100 4 225 106l-483 400q-29 -47 -48.5 -100.5t-19.5 -98.5zM350 840l465 -410v350q-168 121 -262 121q-154 0 -203 -61z" />
<glyph unicode="d" horiz-adv-x="1423" d="M-43 1087v66h1489v-66h-674v-245q129 102 264 102q102 0 189.5 -58.5t126.5 -158.5q26 -68 26 -128q0 -143 -98 -247q-51 -53 -113 -82q-51 -24 -125 -24h-6h-26l-41 4l-25 8l-29 8l-57 25l-24 16v43l61 -12l80 -4h11q47 0 89 16q76 31 119 97.5t43 146.5q0 96 -82 180 q-51 53 -137 72q-29 6 -55 6q-25 0 -37 -4q-18 0 -27 -4l-22 -4l-29 -6l-35 -15q-20 -6 -41 -22v-549l6 -41q6 -18 19 -31l34 -22l39 -7v-41h-344v44q10 -2 19 -2q47 0 71 59l9 39v104q-137 -104 -265 -104q-147 0 -247.5 101.5t-100.5 246.5t103 246q53 53 112 78 q60 27 115 27q9 0 18 -1l39 -2q14 0 36 -2t38 -10l37 -15q41 -16 61 -32l54 -43v247h-668zM160 594q0 -113 75.5 -187.5t186.5 -74.5h27q37 0 81.5 14t94.5 47v406l-50 24l-53 21l-53 10l-47 4q-9 1 -18 1q-44 0 -85 -21q-96 -37 -139 -140q-20 -49 -20 -104z" />
<glyph unicode="e" horiz-adv-x="1034" d="M-20 1087v66h1085v-66h-160v-839q0 -41 31 -72l35 -22l39 -7v-41h-351v44h41q39 12 56 55l8 41v411h-289v-165q0 -117 -63.5 -207t-155.5 -90q-94 0 -162 75l-28 39l-21 43l-12 49l-4 58q-1 8 -1 16q0 39 17 80q41 100 135 141q41 18 94 21l62 2v368h-356zM170 453l6 -74 l19 -64q23 -55 61 -59q30 4 55 55q12 29 19 64l6 78v204q-31 0 -66 -18q-63 -27 -88 -111q-12 -39 -13 -67q1 -4 1 -8zM475 719h289v368h-289v-368z" />
<glyph unicode="f" horiz-adv-x="450" d="M2 1087v66h461v-66h-166l6 -880q6 -18 23 -33l34 -20l41 -7v-41h-350v44q10 -2 19 -2q51 0 77 59l9 39v841h-154zM94 1305q0 135 137 233t342 98q242 0 424 -127q174 -121 220 -333l-166 12q-10 76 -54 158q-61 117 -175.5 182t-248.5 65q-139 0 -235 -84 q-102 -90 -102 -204q0 -84 61 -129l-141 2q-29 14 -45.5 50t-16.5 77z" />
<glyph unicode="g" horiz-adv-x="1003" d="M-6 1092l6 67h1036v-65h-233v-185h-287q-45 0 -76 -10q-41 -6 -73 -29q-35 -29 -35 -67q0 -88 43 -123q41 16 78 18l106 7h39q18 0 43 -5l72 -12q31 -6 65 -22l66 -33q51 -25 88 -78q31 -45 31 -96q0 -90 -78 -154q-70 -55 -164 -69q-29 -4 -66 -5h-26l-17 2l-18 3 l-27 10q-20 6 -43 20l-39 27l19 33l39 -17l41 -14l34 -2h11q77 0 133 52q59 56 59 132q0 117 -159 160q-47 12 -103 12q-143 0 -244 -71q-49 -35 -82 -82q-24 -41 -24 -93q0 -154 129 -256q63 -49 141 -76.5t176 -27.5h43q39 0 66 4l94 14q72 10 148 62l-80 -139h-271 q-256 0 -434 117.5t-178 283.5q0 43 20 88q12 29 52 70q27 27 86 65q39 25 112 54q-123 45 -123 135q0 33 17 67q31 63 108 88q53 16 97 17l243 2v123z" />
<glyph unicode="h" horiz-adv-x="430" d="M-369 1366q-1 8 -1 16q0 94 87 172q88 78 222 82h13q68 0 120 -30q133 -59 192 -220q27 -78 27 -159v-74h160v-66h-160l6 -880q6 -18 22 -33l35 -20l41 -7v-41h-350v44q11 -2 21 -2q52 0 77 59l9 39v841h-154v66h154v76q0 135 -52 241q-47 96 -118 105q-43 0 -76 -16 q-76 -25 -113 -113q-14 -39 -14 -80v-20l2 -13v-10l6 -25q0 -12 8 -30l19 -41l26 -51l-137 2q-12 12 -25 34l-26 48l-4 10q-2 10 -4 12l-2 12l-4 15l-5 28z" />
<glyph unicode="i" horiz-adv-x="1044" d="M-41 1087v66h1085v-66h-159l6 -880q10 -20 22 -31l31 -22l39 -7v-41h-344v44q10 -2 19 -2q52 0 77 59l8 39v301q-125 -229 -350 -230q-156 0 -258 111q-108 114 -108 253v17l2 50q2 31 8 51q4 33 10 49l19 49q16 45 49 96l30 47q12 20 35 45zM166 698q0 -121 82 -211 t188 -90q82 0 160 64q14 12 39 33q55 45 108 143v450h-399q-88 -104 -133 -202.5t-45 -186.5z" />
<glyph unicode="j" horiz-adv-x="768" d="M0 1087v66h778v-66h-416q125 -35 211 -129l37 -49l25 -45l14 -49l6 -55q0 -125 -116 -219l-62 -39l-65 -27q-29 -12 -72 -18l-82 -4q228 -275 316 -275h4l32 2q20 4 33 10l35 19l39 31l20 -43q-10 -18 -37 -41l-51 -29l-26 -10l-31 -6l-33 -5l-37 -2q-8 -1 -17 -1 l-171 57q-80 51 -156 172q-12 25 -35 47l-41 41q-20 20 -43 31l-47 20v45q29 -10 78 -20l107 -7h13q79 0 148 45q76 50 111 132q23 51 23 112q0 176 -189 264q-57 27 -137 43z" />
<glyph unicode="k" horiz-adv-x="378" d="M-31 1087v66h459v-66h-164l6 -880q8 -18 23 -31l33 -22l41 -7v-41h-349v44q10 -2 19 -2q52 0 78 59l8 39v841h-154z" />
<glyph unicode="l" horiz-adv-x="1239" d="M-14 1087v66h1276v-66h-160l6 -880q6 -18 18 -31l35 -22l39 -7v-41h-344v44q10 -2 19 -2q52 0 77 59l9 39v307q-31 -16 -70 -25l-84 -8l-51 2l-45 10l-43 15l-39 16l24 64q25 -16 64 -25l90 -8l39 2q25 2 31 4l10 2l10 4h8l6 4q14 4 25 11l25 16v450h-637 q121 -25 208 -114q96 -94 97 -213q0 -102 -72 -180q-63 -70 -166 -103q-69 -24 -141 -24h-6l102 -121l86 -84q27 -27 70 -49q31 -10 61 -15l35 2q23 4 37 11l37 16l33 27l16 -43q-10 -18 -37 -41l-51 -29l-27 -10l-31 -6l-32 -5l-37 -2h-12q-86 0 -175 56q-80 51 -155 172 l-37 49l-41 41l-23 16l-20 15l-25 10l-18 8l-2 45q29 -10 78 -20l106 -7q10 -1 20 -1q114 0 197 84q90 90 90 206q0 127 -100 216t-237 91z" />
<glyph unicode="m" horiz-adv-x="901" d="M-8 1087v66h926v-66h-338q39 -10 65.5 -23t56.5 -40q86 -61 86 -166q0 -57 -50 -108.5t-134 -75.5q98 -12 172 -86t74 -166q0 -131 -113.5 -224.5t-279.5 -93.5q-135 0 -248 93q-102 86 -152 219q-30 79 -30 189v7l55 2q0 -164 100 -286q94 -121 238 -121 q119 0 200.5 61.5t81.5 141.5q0 100 -61 165.5t-160 67.5l-86 2v62h86q63 0 113 49l18 26l17 29l8 33l4 39q0 66 -43 116q-18 29 -49 50.5t-68 35.5z" />
<glyph unicode="n" horiz-adv-x="993" d="M-25 1087v66h1006v-66h-154v-227h-280q-139 0 -244.5 -95t-105.5 -233q0 -129 99 -218t251 -89q51 0 111.5 20.5t107.5 59.5l-2 14l-2 17l-2 12l-2 17q0 14 -8 30l-13 35q-6 29 -22 51l-29 51l166 3l14 -31l13 -25l10 -28l8 -27l6 -27l6 -22l2 -27l2 -31q1 -8 1 -16 q0 -72 -50 -164q-49 -88 -135 -141h-59l43 45l35 63q8 25 22 74l8 78l-55 -49l-70 -41l-78 -23l-83 -8q-186 0 -322 119q-74 63 -106.5 136t-32.5 161q0 152 118.5 258t292.5 109l244 2v167h-711z" />
<glyph unicode="o" horiz-adv-x="1034" d="M-27 1087v66h1092v-66h-154l7 -882q6 -18 20 -33l31 -20l41 -7v-39h-344v41l20 -2q14 2 19 5l14 8l16 14l21 33l8 39v125q-125 -162 -326 -162q-174 0 -286 108q-63 59 -93 125t-30 154q0 156 118.5 270.5t290.5 114.5q100 0 185.5 -40t140.5 -118v266h-791zM176 594 q0 -86 39 -152q57 -96 162 -135q50 -20 108 -20h15q31 0 63 8q90 22 201 133v334q-25 29 -59 53l-68 47l-72 29q-27 10 -65 10q-72 0 -135 -24q-113 -45 -166 -164q-23 -51 -23 -119z" />
<glyph unicode="p" horiz-adv-x="1003" d="M-33 1087v66h1055v-66h-154l6 -882q6 -18 21 -33l31 -20l41 -7v-39h-344v41l20 -2q14 2 19 5l14 8l16 14l21 33l8 39v106q-100 -137 -305 -137q-141 0 -240 92q-53 49 -78.5 100.5t-25.5 126.5q0 174 164 277q49 31 118 49l-368 2v60h637v-60h-121q-111 -14 -205 -102 q-84 -78 -84 -183q0 -119 74 -204q51 -59 135 -78q33 -8 55 -6l37 2q25 2 35 4l33 8l32 14q35 14 58 33l49 49v690h-754z" />
<glyph unicode="q" horiz-adv-x="0" d="M-881 -127h140q0 -94 99 -163.5t251 -69.5q61 0 106 16q68 27 111 80q12 16 29 43q18 41 18 88q0 72 -35 106q-41 45 -88 45q-23 0 -41 -8l-33 -14q-14 -10 -22 -29l-8 -39h-144q6 31 31 56q39 47 131 73q41 10 86 11q72 0 105 -17q102 -27 143 -104q20 -37 20 -80 q0 -115 -118 -195q-90 -59 -209 -75q-43 -6 -82 -7q-186 0 -328 76q-129 72 -162 207z" />
<glyph unicode="r" horiz-adv-x="1024" d="M25 1087v66l1022 4l20 -70h-160l6 -882q8 -18 23 -31l33 -22l43 -7v-39h-350v41q25 0 38 5l33 18q16 16 25 35l8 39v518q-53 41 -154 55q-31 4 -73 4q-90 0 -168 -44t-113 -122q-25 -51 -25 -104v-45q0 -74 33 -160q37 -100 107 -182l-123 -58q-158 178 -158 408 q0 117 74 209t188 133q78 27 166 27h39l14 -2h13l24 -7l35 -8l57 -18q18 -6 64 -27v266h-741z" />
<glyph unicode="s" horiz-adv-x="0" d="M-1049 1583v55h191q20 -4 31 -10l45 -20l14 -9l16 -8l19 -16l385 -305q23 -18 65 -49q27 -10 58 -15l-2 -41h-142q-43 0 -137 78l-352 291q-53 43 -139 47z" />
<glyph unicode="t" horiz-adv-x="1239" d="M-31 1087v66h1299v-66h-158l6 -882q6 -18 21 -33l10 -8l16 -8l23 -9l26 -2v-39h-348v41q45 0 74 25q14 12 23 33l8 39v555h-381q55 -27 100 -86q14 -18 33 -43q51 -90 51 -168q0 -176 -174 -256q-45 -20 -109 -21q-186 0 -321 170q-74 90 -111 191q-33 88 -51 235l43 8 q35 -215 146 -360q53 -70 114.5 -104.5t124.5 -34.5q70 0 127 61.5t57 159.5q0 94 -38 162q-33 57 -103 84l-61 2v73h553v215h-1000z" />
<glyph unicode="u" horiz-adv-x="1198" d="M-27 1087v66h1258v-66h-160l6 -882q8 -18 23 -31l33 -22l43 -7v-39h-351v41q45 0 74 25q14 12 23 33l8 39v364q-20 27 -53 45l-72 43l-92 41l-109 41q47 -31 85 -102.5t38 -143.5q0 -139 -101.5 -244.5t-246.5 -105.5q-143 0 -244 103q-106 109 -106 247q0 233 223 324 q68 27 139 27q260 0 539 -197v401h-957zM176 532q0 -131 61.5 -219t141.5 -88q82 8 139 88q43 61 57 156q4 27 5 63q0 80 -17 117q-25 113 -108 168q-35 23 -76 23q-84 0 -143.5 -88t-59.5 -220z" />
<glyph unicode="v" horiz-adv-x="1177" d="M43 489l55 3q0 -121 91.5 -209t216.5 -88q104 0 177.5 61t73.5 154q0 80 -62.5 146.5t-158.5 68.5l-86 2v61h86q80 0 132.5 57.5t52.5 137.5q0 72 -56.5 127t-128.5 55q-176 0 -270 -117l-37 47q137 156 307 156q131 0 228.5 -81t97.5 -200q0 -113 -119 -174 q-31 -16 -84 -28v-11q98 -18 171 -94t73 -172q0 -117 -114 -202t-283 -85q-190 0 -300 168q-25 37 -36 66q-27 68 -27 151zM762 627v61h164v399h-123v66h418v-66h-154l6 -882q6 -18 21 -33l30 -20l41 -7v-39h-342v41l21 -2q14 2 18 5l15 8l18 14q12 12 23 33l8 39v383h-164z " />
<glyph unicode="w" horiz-adv-x="0" d="M-971 -188q0 49 29 98t82 84q106 70 258 74h13q110 0 210 -33q119 -39 186 -88q166 -121 166 -307h-141q-25 160 -141.5 263t-274.5 103q-109 0 -174 -53q-71 -56 -71 -139q0 -72 41 -123q37 -43 106 -51q27 0 49 8l39 18q18 12 27 29l8 37h139q0 -29 -22 -54 q-39 -55 -146 -77q-45 -10 -94 -11q-121 0 -205 64.5t-84 157.5z" />
<glyph unicode="x" horiz-adv-x="1146" d="M-37 1087v66h1227v-66h-166v-841q0 -41 31 -72l35 -22l38 -7v-39h-342v41q70 0 88 58l9 39v843h-570q160 -29 273.5 -151.5t113.5 -280.5q0 -147 -112 -260l-60 -49l-63 -33l-72 -20l-80 -6q-10 -1 -20 -1q-71 0 -143 38q-84 43 -121 114q-23 43 -23 94q0 104 86 175 t203 71q33 0 70 -12q45 -14 100 -59q33 -27 82 -101l6 72v12q0 51 -29 123q-57 139 -202 221q-59 33 -150 51zM147 532q0 -78 46 -141q35 -53 102 -61q28 4 53 14q49 27 78 109q10 45 10 79q0 51 -10 76q-10 76 -74 111q-25 12 -57 16q-57 0 -107 -59q-41 -68 -41 -144z" />
<glyph unicode="y" horiz-adv-x="1218" d="M-39 1087v66h1307v-66h-166l6 -882q6 -18 18 -31l35 -22l39 -7v-39h-344v41q45 0 76 25l20 31l9 41v598q-86 -12 -146.5 -110.5t-60.5 -242.5l-37 3q0 139 -80 243.5t-191 104.5q-88 0 -158.5 -58.5t-101.5 -144.5q-22 -58 -22 -118v-5q0 -74 22 -125q53 -121 176 -172 q51 -22 121 -22h6q80 0 142 61l31 -29q-90 -106 -222 -106q-170 0 -293 117q-68 61 -99.5 126.5t-31.5 155.5q0 160 115 279t279 119q61 0 94 -17q86 -25 160 -108q31 -39 59 -95l10 2q37 98 92.5 146.5t135.5 66.5v174h-1000z" />
<glyph unicode="z" horiz-adv-x="0" d="M-1001 147q233 0 428 78q174 68 327 197l-2 -72q-90 -82 -174 -139q-190 -127 -369 -172q-82 -20 -178 -21z" />
<glyph unicode="{" horiz-adv-x="921" d="M27 453q0 88 83 171t216 136q-92 16 -158 63q-80 58 -80 140t96 155q47 29 103 45q63 18 131 19q74 0 131 -17q78 -25 131 -71q63 -59 63 -131l-6 -62l-18 -53q-25 -47 -68 -70l277 2v-61h-430q-127 0 -230 -76q-94 -70 -94 -172q0 -119 72.5 -204t189.5 -85q94 0 185 74 v217h165l-10 -31l-8 -30l-6 -62v-141q0 -49 -17 -94q-51 -143 -204 -201l-25 61q23 0 41 11l33 24q12 14 22 43l9 51v93q-16 -20 -48 -41l-55 -29l-61 -18l-64 -5q-63 -4 -139 25q-145 53 -201 190q-27 66 -26 134zM236 963q0 -74 51 -134q59 -55 131 -51q76 4 130 54.5 t54 130.5q0 39 -14 67q-8 23 -43 60q-51 55 -127 55q-78 0 -130 -53.5t-52 -128.5z" />
<glyph unicode="|" horiz-adv-x="1157" d="M10 1087v66h1157v-66h-159v-841q0 -41 30 -72l35 -22l39 -7v-39h-342v41q27 0 39 5l31 18l20 35l8 39v149q-55 -78 -182 -135q-115 -51 -266 -51q-86 0 -148 18q-139 41 -194 133q-27 45 -27 95q0 82 74 151.5t190 69.5q-43 6 -65 16l-51 31l-33 35q-6 14 -10 41 q0 66 51 116t133 50l203 2v122h-533zM193 471q0 -66 51 -115t118 -67q53 -14 107 -15q119 0 219 48q53 23 96 57q18 14 84 80v628h-184v-184h-221q-35 0 -60 -10q-57 -10 -75 -51q-8 -18 -13 -45q0 -18 11 -35l32 -31l50 -20l55 -6l160 2v-62h-160q-166 0 -252 -106 q-18 -31 -18 -68z" />
<glyph unicode="}" horiz-adv-x="1177" d="M0 1087v66h1225l-11 -88l-141 22v-227h-319q-131 0 -228.5 -97t-97.5 -231q0 -125 104.5 -216t251.5 -91q119 0 215 80q0 78 -18 137q-14 45 -49 90l160 3q49 -90 49 -230q0 -211 -172 -309h-62q23 16 39 41l29 59q16 33 18 70l6 78q-35 -45 -120 -90l-41 -15l-35 -10 l-39 -6l-41 -2q0 -92 -56.5 -173t-142.5 -118q-57 -25 -127 -25q-150 0 -255 91.5t-105 230.5q0 59 18 113q33 90 123 153q41 29 105 47l12 -47q-27 -16 -49 -39l-37 -49l-23 -53l-8 -64q0 -188 172 -254q53 -20 109 -20q39 0 69 16q76 25 117 109q14 27 29 88 q-82 0 -158 35q-145 66 -213 219q-29 66 -29 151q0 158 129 270.5t320 115.5l209 2v167h-932z" />
<glyph unicode="~" horiz-adv-x="0" d="M-641 -35l78 103l153 4l406 -414h-141l-373 367l-45 -60h-78z" />
<glyph unicode="&#xa1;" horiz-adv-x="0" d="M-729 1532l145 2q0 -72 37 -141.5t98 -98.5q39 -20 89 -20q84 0 145 60.5t78 144.5q4 23 4 53l131 2q0 -96 -55 -172q-20 -29 -47 -47l-56 -39l-59 -27q-25 -10 -66 -18l-75 -4q-141 -8 -261 86q-109 86 -108 219zM-432 1438l6 30l18 31l27 21l31 8q19 4 35 -6l28 -19 l21 -28l6 -37l-6 -31l-19 -27l-28 -20l-37 -6l-27 6l-29 18l-18 27z" />
<glyph unicode="&#xa2;" horiz-adv-x="0" d="M-1374 1583v55h190q20 -4 31 -10l45 -20l14 -9l17 -8l18 -16l385 -305q23 -18 66 -49q27 -10 57 -15l-2 -41h-141q-43 0 -137 78l-353 291q-53 43 -139 47z" />
<glyph unicode="&#xa3;" horiz-adv-x="1617" d="M0 1087v66h1667v-66h-166l6 -882q6 -18 23 -33l35 -20l41 -7v-39h-351v41q45 0 76 25l21 31l8 41v106q-127 -106 -287 -106q-139 0 -233 73q-125 -213 -320 -213q-221 0 -342 226q-16 31 -35 49l-41 41q-20 20 -43 31l-47 20v45q59 -27 185 -27q119 0 202.5 84t83.5 205 q0 63 -18 119q-33 98 -113 152q-39 25 -94 36zM258 453q10 -4 29 -27l39 -47l71 -90q59 -74 131 -99q25 -8 47 -8q31 0 60 11l65 32q37 27 56 51l53 72q-53 63 -78.5 128t-25.5 136q0 152 107.5 259.5t260.5 107.5q160 0 287 -96v204h-963q106 -23 172 -104q74 -96 74 -205 q0 -129 -110.5 -227t-274.5 -98zM606 63q236 0 424.5 75t329.5 200v-70q-373 -332 -723 -331zM852 612q0 -190 164 -260q53 -25 100 -22l70 2l59 12l58 16l57 31v451l-49 22l-62 23l-16 2l-14 4h-17l-16 4l-70 4q-45 2 -100 -22q-88 -39 -146 -158q-18 -49 -18 -109z" />
<glyph unicode="&#xa4;" />
<glyph unicode="&#xa5;" horiz-adv-x="808" d="M10 1059v71h805v-71h-805zM35 432l41 27q27 -33 67.5 -49.5t85.5 -16.5q90 0 161 67.5t71 166.5q0 94 -69.5 165.5t-162.5 71.5q-39 0 -75 -18l-41 -21l-17 -10l-20 -16l-41 22q102 127 258 127q129 0 225 -82t96 -196l234 2v-64h-234q0 -94 -55 -172.5t-143 -111.5 q-55 -20 -123 -21q-78 0 -135 31q-27 10 -70 43z" />
<glyph unicode="&#xa6;" />
<glyph unicode="&#xa7;" />
<glyph unicode="&#xa8;" horiz-adv-x="419" d="M-524 1573v55h190q20 -4 31 -10l45 -21l14 -8l17 -8l18 -16l385 -305q23 -18 64 -50q27 -10 57 -14v-41h-141q-29 0 -93 43q-23 14 -47 35l-350 291q-53 43 -139 47zM-14 1087v66h458v-66h-163l6 -880q8 -18 22 -31l33 -22l41 -7v-41h-348v44q66 -12 96 57l8 39v841h-153 z" />
<glyph unicode="&#xa9;" horiz-adv-x="419" d="M-414 1485v37h166q39 0 64 -13q25 -4 53 -26l188 -223l60 -50q23 -10 45 -14l104 2v-45h-233l-27 10l-22 15l-23 18l-217 246l-47 31l-19 6l-24 4zM-164 1595v43h221q59 0 105 -75l135 -232q12 -31 37 -49q18 -10 55 -14l19 2v-41h-142q-29 0 -50 13t-42 46l-147 246 q-23 51 -90 59zM-14 1087v66h458v-66h-163l6 -880q8 -18 22 -31l33 -22l41 -7v-41h-348v44q66 -12 96 57l8 39v841h-153z" />
<glyph unicode="&#xaa;" horiz-adv-x="0" d="M-803 -410l322 412h155l328 -412h-154l-251 316l-244 -316h-156z" />
<glyph unicode="&#xab;" horiz-adv-x="696" d="M-20 1059v71h714v-71h-714zM-2 821q115 127 213 127q59 0 123 -24q109 -45 215 -176q57 -70 100 -142l76 53v-84l-592 -430l-39 64l426 303q-94 162 -184 240q-82 70 -143 86q-25 6 -48 6l-22 -2l-17 -2l-18 -6l-22 -9q-41 -14 -50 -39z" />
<glyph unicode="&#xac;" />
<glyph unicode="&#xad;" horiz-adv-x="327" d="M113 4v133h108v-133h-108z" />
<glyph unicode="&#xae;" horiz-adv-x="419" d="M-524 1573v55h190q20 -4 31 -10l45 -21l14 -8l17 -8l18 -16l385 -305q23 -18 64 -50q27 -10 57 -14v-41h-141q-29 0 -93 43q-23 14 -47 35l-350 291q-53 43 -139 47zM-14 1087v66h458v-66h-163l6 -880q8 -18 22 -31l33 -22l41 -7v-41h-348v44q66 -12 96 57l8 39v841h-153 z" />
<glyph unicode="&#xaf;" />
<glyph unicode="&#xb0;" />
<glyph unicode="&#xb1;" horiz-adv-x="0" d="M-356 1427q0 45 22 80q49 96 203 125q14 2 57 4l60 2v-61h-62q-25 0 -50.5 -11.5t-45.5 -35.5q-35 -33 -43 -103q0 -139 141 -264l-143 2q-139 119 -139 262zM-135 1386l6 31l18 31l27 20l31 9q17 3 35 -7l26 -18q14 -12 19 -29l8 -37l-6 -30l-19 -27q-8 -12 -26 -20 l-37 -6l-27 6l-29 18l-18 27z" />
<glyph unicode="&#xb2;" />
<glyph unicode="&#xb3;" horiz-adv-x="1300" d="M-29 1059v71h1346v-71h-399v-258h-340q-51 0 -81 -7.5t-69 -27.5q-61 -23 -63 -76q-2 -41 61 -80q29 -18 68 -28l84 -9l174 2q59 0 110 -20q109 -33 162 -127q23 -43 23 -92q0 -86 -70 -162q-80 -86 -209 -125q-76 -23 -172 -22q-164 0 -306.5 89t-221.5 234 q-47 88 -68 211l61 2q33 -201 179 -323q74 -63 156.5 -96t181.5 -33q74 0 137 18q115 35 162 119q23 41 22 88q0 66 -55.5 120t-138.5 54l-205 2q-76 0 -123 11.5t-103 41.5q-84 49 -84 125q0 72 77 123t182 51l303 2v193h-781zM1112 690l6 35l19 29l26 18l31 8q19 2 33 -6 l30 -18q14 -12 19 -29l8 -37l-6 -31l-18 -26l-29 -21l-37 -6l-29 6l-26 19l-21 26q-6 12 -6 33z" />
<glyph unicode="&#xb4;" horiz-adv-x="808" d="M10 1059v71h805v-71h-805zM35 432l41 27q27 -33 67.5 -49.5t85.5 -16.5q90 0 161 67.5t71 166.5q0 94 -69.5 165.5t-162.5 71.5q-39 0 -75 -18l-41 -21l-17 -10l-20 -16l-41 22q102 127 258 127q129 0 225 -82t96 -196l234 2v-64h-234q0 -94 -55 -172.5t-143 -111.5 q-55 -20 -123 -21q-78 0 -135 31q-27 10 -70 43z" />
<glyph unicode="&#xb5;" />
<glyph unicode="&#xb6;" horiz-adv-x="952" d="M-14 1059v71h970v-71h-204v-246l55 37l61 31l64 20l57 8v-63q-82 0 -237 -92v-578q0 -43 30 -74l35 -22l43 -8v-43h-366v45l24 -2q14 2 19 4l16 8l18 14q14 14 23 35l8 41v164l-33 -25l-26 -16l-29 -14l-33 -19l-59 -18l-57 -6q-66 0 -111 17t-88 50q-33 31 -60 76 q-18 43 -18 94v582h-102zM236 524q0 -78 49 -135q25 -29 58.5 -44t66.5 -15q31 0 45 4l45 12l49 21l53 34v658h-366v-535z" />
<glyph unicode="&#xb7;" horiz-adv-x="890" d="M14 348l148 2q0 -127 76 -213q37 -45 85 -67.5t97 -22.5q98 0 180 90q76 84 76 211q0 78 -82 150l-477 323q-14 6 -27 23l-20 37l-13 41l-4 51q-6 76 58.5 131t160.5 55l424 2v-69h-360q-29 0 -49 -13q-45 -10 -72 -61l-8 -45l6 -58q6 -29 23 -47l36 -45l52 -43l352 -235 l59 -53q31 -29 49 -62l17 -31l14 -30l6 -33l4 -33q0 -131 -117.5 -228.5t-287.5 -97.5t-288 110t-118 261z" />
<glyph unicode="&#xb8;" horiz-adv-x="757" d="M-18 1059v71h784v-71h-307q94 -23 152.5 -86.5t58.5 -153.5t-76 -155q-68 -59 -162 -74q-37 -6 -65 -4l-50 2l-45 6l-45 12l-53 21q0 -164 97.5 -280t250.5 -116q123 0 277 129v-61q-135 -143 -310 -143q-193 0 -325 135q-72 70 -104.5 151.5t-32.5 184.5v78 q66 -25 118 -27l158 -8q82 -4 154 49q66 49 65 125q0 90 -112 170q-39 27 -80 43z" />
<glyph unicode="&#xb9;" />
<glyph unicode="&#xba;" horiz-adv-x="1013" d="M8 1059v71h1018v-71h-176v-205h-301q-51 0 -82 -10q-55 -6 -100 -51q-12 -16 -13 -39q0 -94 45 -127l39 10l51 8l111 8q57 4 154 -16q158 -33 217 -102q29 -37 28 -78l-141 2q0 49 -72.5 88t-191.5 39q-147 0 -257 -75t-110 -181q0 -152 135.5 -262.5t333.5 -110.5 q113 0 214.5 22.5t152.5 59.5l-84 -145h-283q-256 0 -449.5 120.5t-193.5 300.5q0 98 80 178t203 113q-31 8 -55.5 22.5t-41 33t-24.5 43.5l-8 43q0 68 66.5 124t164.5 56l258 2v129h-688z" />
<glyph unicode="&#xbb;" horiz-adv-x="1095" d="M82 532h860l66 -120h-869zM434 180l98 123l123 -119l-106 -116zM434 745l115 113l106 -117l-114 -116z" />
<glyph unicode="&#xbc;" horiz-adv-x="456" d="M100 502q0 109 21 203q27 121 67 194l50 88l61 78q33 41 70 70l86 65l20 6l17 -6l16 -12l-2 -21l-2 -14q-6 -10 -10 -14l-19 -17q-55 -49 -98 -116q-51 -82 -74 -156l-27 -90l-20 -107l-2 -20q0 -16 -4 -25v-20l-4 -47v-49q0 -86 14 -179q16 -104 41 -170l29 -75l37 -66 l47 -57q29 -35 59 -62l14 -12l11 -12l6 -11l6 -12q-2 -14 -4 -18l-14 -11l-7 -8l-32 15q-172 106 -262.5 291.5t-90.5 396.5z" />
<glyph unicode="&#xbd;" horiz-adv-x="520" d="M57 -178l6 33l23 28q197 156 231 516q4 43 5 93q0 176 -58 356q-51 162 -176 274l-22 27l-9 25l2 6l9 8l14 6l20 6q172 -102 275 -303q59 -117 80 -287q8 -72 6 -108l-6 -109q-2 -37 -17 -94l-6 -25l-6 -22l-8 -25l-6 -24l-19 -49l-20 -45q-74 -162 -266 -295l-27 -19z " />
<glyph unicode="&#xbe;" horiz-adv-x="890" d="M129 565h608l35 -121h-610zM145 311h609l34 -121h-610z" />
<glyph unicode="&#xbf;" horiz-adv-x="563" d="M39 553l55 43l27 22l33 35q8 8 12 21l14 43l15 71v429q0 37 4 51l14 47l23 43l28 43q57 86 174 86q20 0 33 -4l31 -6l184 2v-101h-182q-39 0 -70 -14q-70 -23 -102 -84q-14 -37 -15 -70v-422l-12 -83q0 -18 -8 -33l-8 -21l-31 -43l-84 -55l55 -37l7 -8l8 -4l4 -6l6 -6 l14 -21l31 -82l14 -51l4 -41v-418q0 -76 50 -115q41 -33 106 -38h31h182v-117h-186q-76 0 -129 16q-84 27 -130 94.5t-46 155.5v428q0 37 -11 64q-6 41 -26 67l-23 31l-24 27z" />
<glyph unicode="&#xc0;" horiz-adv-x="634" d="M-45 -274h178q74 0 128 38.5t54 114.5v420q0 29 4 43l17 55q20 68 51 99l64 51l14 6l-86 53l-25 33l-18 43l-17 63l-4 41v426q0 63 -55 115l-16 10l-13 13l-16 8l-14 6l-33 8l-35 4l-178 2v101h176l33 8l31 2q39 2 96 -25q98 -47 139 -153q16 -47 16 -97l3 -466 q0 -18 8 -31l24 -62l23 -28l35 -31l69 -43l-26 -14l-21 -13l-18 -14l-15 -12l-26 -31l-21 -31q-14 -23 -26 -67l-9 -70v-426q0 -117 -96 -201l-43 -28l-51 -21l-29 -6l-26 -6l-64 -4h-182v117z" />
<glyph unicode="&#xc1;" horiz-adv-x="1064" d="M-8 1087v66h1085v-66h-159l6 -880q10 -20 22 -31l31 -22l39 -7v-41h-344v44q66 -12 96 57l8 39v301q-125 -229 -350 -230q-156 0 -258 111q-115 121 -109 270l2 50q2 31 9 51q4 33 10 49l18 49q16 45 49 96l31 47q12 20 35 45zM16 201q227 0 424 78q168 66 336 198v-33 q-109 -98 -180 -151q-27 -20 -86 -57q-25 -16 -86 -52l-100 -49l-97 -35l-92 -22l-88 -6zM199 698q0 -121 82 -211t188 -90q82 0 160 64q14 12 39 33q55 45 108 143v450h-399q-88 -104 -133 -202.5t-45 -186.5z" />
<glyph unicode="&#xc2;" />
<glyph unicode="&#xc3;" horiz-adv-x="1003" d="M2 1085v68h997v-68h-135v-202h-368q-57 0 -97 -11q-49 -6 -77 -22q-61 -18 -72 -76q0 -20 16.5 -35.5t55.5 -36.5l77 -22l97 -8l141 2q47 0 108 -19q174 -53 175 -196q0 -96 -80 -176q-68 -66 -170 -101q-74 -25 -156 -22l-98 2q139 -131 221 -131q160 0 270 98l31 -29 q-41 -41 -84 -69l-86 -41q-45 -20 -127 -35q-12 -2 -41 -2q-96 0 -197 55q-90 49 -196 170l-49 55l-49 43l-48 31l-38 19v39h208l19 -33l29 -33l81 -76h93q139 0 231 62q100 66 100 166q0 55 -55 110q-27 27 -58.5 38t-70.5 11l-209 2q-68 0 -110 9q-111 31 -152 88 q-20 35 -20 65q0 66 96 117t229 51l289 2v141h-721zM584 1417q0 45 19.5 82t64.5 66q72 57 198 61l62 2v-61h-62q-27 0 -53 -15q-55 -20 -76 -73q-8 -23 -12 -62q0 -135 141 -264l-141 2q-72 61 -106.5 126t-34.5 136z" />
<glyph unicode="&#xc4;" horiz-adv-x="1085" d="M-2 1059v71h1100v-71h-166v-883q0 -45 31 -76l34 -22l43 -6v-43h-366v45l22 -2q14 2 19 4l16 8l19 14q16 16 24 35l8 41v80q-86 -72 -175 -107.5t-191 -35.5q-137 0 -239.5 73.5t-102.5 184.5q0 82 63.5 156.5t169.5 101.5q-88 0 -149 63q-31 31 -47.5 72t-16.5 82 q0 82 74 147.5t184 65.5zM244 414q0 -43 20 -80q14 -29 47 -60q29 -20 76 -41q57 -14 94 -14q182 0 301 96v744h-282q-115 -20 -185.5 -83t-70.5 -132q0 -59 30.5 -99t100.5 -73q49 -14 86 -15l84 2v-63h-64q-53 0 -92 -16q-92 -29 -127 -95q-18 -35 -18 -71z" />
<glyph unicode="&#xc5;" horiz-adv-x="1402" d="M6 1059v71h1411v-71h-792l34 -15l33 -14l60 -37q29 -16 39 -35l28 -45l19 -49l6 -45q0 -61 -49 -110q-61 -61 -146 -82q94 -10 182 -92q76 -74 76 -175q0 -104 -76 -194q-72 -82 -176 -115q-74 -25 -159 -24q-182 0 -314 153q-102 115 -129 273q-8 47 -8 108l64 2 q0 -178 100 -303t248 -125q123 0 209 61.5t86 151.5q0 100 -68 172t-176 74l-78 2v63h105l34 11l17 6l16 10l14 10l17 15q55 49 55 133q0 70 -47 125q-39 55 -121 88zM844 717q55 45 135 59q18 4 57 4q59 2 119.5 -23.5t101.5 -70.5q94 -86 95 -229q0 -96 -53.5 -178 t-141.5 -121q-51 -23 -121 -23q-59 0 -129 39l21 47l45 -16l63 -4q61 -4 117 75l21 37l16 43l10 47l4 54q8 94 -49 182q-49 76 -119 76q-123 0 -174 -33z" />
<glyph unicode="&#xc6;" horiz-adv-x="430" d="M-20 1087v66h460v-66h-166l7 -880q6 -18 22 -33l35 -20l41 -7v-41h-350v44q66 -12 96 57l8 39v841h-153zM72 1305q0 135 137 233t342 98q242 0 424 -127q174 -121 219 -333l-166 12q-10 76 -53 158q-61 117 -176 182t-248 65q-139 0 -236 -84q-102 -90 -102 -204 q0 -84 61 -129l-141 2q-29 14 -45 50t-16 77zM1108 1456q0 45 19.5 82t64.5 66q72 57 199 61l61 2v-61h-61q-27 0 -54 -15q-55 -20 -75 -73q-8 -23 -13 -62q0 -135 142 -264l-142 2q-72 61 -106.5 125.5t-34.5 136.5z" />
<glyph unicode="&#xc7;" horiz-adv-x="440" d="M-18 1087v66h460v-66h-166l7 -880q6 -18 22 -33l35 -20l41 -7v-41h-350v44q66 -12 96 57l8 39v841h-153zM74 1305q0 135 137 233t342 98q242 0 424 -127q174 -121 219 -333l-166 12q-10 76 -53 158q-61 117 -176 182t-248 65q-139 0 -236 -84q-102 -90 -102 -204 q0 -84 61 -129l-141 2q-29 14 -45 50t-16 77zM1141 1417l6 35l18 29l27 18l31 8q18 2 32 -6l31 -18q14 -12 19 -29l8 -37l-6 -31l-19 -26l-28 -21l-37 -6l-29 6l-27 19l-20 26q-6 12 -6 33z" />
<glyph unicode="&#xc8;" horiz-adv-x="430" d="M-375 1366q-8 104 86 188q88 78 221 82q77 3 134 -30q133 -59 192 -220q27 -78 27 -159v-74h159v-66h-159l6 -880q6 -18 22 -33l35 -20l41 -7v-41h-350v44q68 -14 98 57l8 39v841h-153v66h153v76q0 135 -51 241q-47 96 -119 105q-43 0 -75 -16q-76 -25 -113 -113 q-14 -39 -14 -80v-20l2 -13v-10l6 -25q0 -12 8 -30l18 -41l27 -51l-137 2q-12 12 -25 34l-26 48l-4 10q-2 10 -4 12l-3 12l-4 15l-4 28zM338 1315l6 35l18 28l27 19l31 8q19 2 33 -6l30 -19q14 -12 19 -28l8 -37l-6 -31l-19 -27l-28 -20l-37 -6l-29 6l-26 18l-21 27 q-6 12 -6 33z" />
<glyph unicode="&#xc9;" horiz-adv-x="450" d="M-6 1087v66h461v-66h-166l6 -880q6 -18 22 -33l35 -20l41 -7v-41h-350v44q66 -12 96 57l8 39v841h-153zM86 1305q0 135 137 233t342 98q242 0 424 -127q174 -121 219 -333l-166 12q-10 76 -53 158q-61 117 -176 182t-248 65q-139 0 -235 -84q-102 -90 -103 -204 q0 -84 62 -129l-142 2q-29 14 -45 50t-16 77zM1122 1456q0 45 19.5 82t64.5 66q72 57 199 61l61 2v-61h-61q-53 0 -98 -41q-23 -20 -37 -49q-6 -18 -10 -54v-26q0 -31 19 -81t62 -104l64 -59l-141 2q-72 61 -107 125.5t-35 136.5zM1327 1407l6 35l19 28l26 19l31 8 q19 2 33 -6l31 -18q14 -12 18 -29l8 -37l-6 -31l-18 -26l-29 -21l-37 -6l-29 6l-26 19l-21 26q-6 12 -6 33z" />
<glyph unicode="&#xca;" horiz-adv-x="419" d="M-389 1366q-8 104 86 188q88 78 221 82q67 3 135 -30q102 -49 159.5 -154.5t57.5 -224.5v-74h160v-66h-160l6 -880q6 -18 23 -33l35 -20l41 -7v-41h-350v44q68 -14 98 57l8 39v841h-154v66h154v76q0 135 -51 240.5t-119 105.5q-43 0 -76 -16q-76 -25 -112 -113 q-14 -39 -15 -80v-20l2 -13v-10l7 -25q0 -12 8 -30l18 -41l27 -51l-137 2q-12 12 -25 34l-27 48l-4 10q-2 10 -4 12l-2 12l-4 15l-4 28zM252 1446q0 45 19.5 82t64.5 65q72 57 199 62l61 2v-62h-61q-53 0 -99 -41q-23 -20 -37 -49q-6 -18 -10 -53v-27q0 -31 19.5 -81 t62.5 -103l64 -59l-142 2q-72 61 -106.5 125.5t-34.5 136.5z" />
<glyph unicode="&#xcb;" horiz-adv-x="778" d="M59 471q0 94 55.5 167t147.5 97q-38 11 -67 29q-35 23 -54 49l-18 27l-14 32l-11 33l-2 39q-2 41 21 80q37 76 143 109q68 18 125 18q176 0 244 -104q20 -35 20 -68q0 -80 -59 -113l-39 -8q-45 0 -76 31l-22 35l-7 39l7 38q12 37 57 56l41 8q-37 37 -123 37 q-74 0 -129 -44t-55 -114q0 -121 112 -172q33 -14 72 -12l37 2v-62h-62q-43 0 -79 -18q-70 -27 -109 -113q-14 -43 -14 -80q0 -82 73 -155q78 -66 172 -66q78 0 152 31q68 27 129 92q27 29 70 92l16 -53q-47 -86 -133 -151q-72 -53 -156 -80q-53 -16 -121 -17 q-147 0 -241 82q-102 86 -103 207z" />
<glyph unicode="&#xcc;" horiz-adv-x="921" d="M8 1087v66h932v-66h-127v-184h-246q-49 0 -80 -10q-43 -6 -67 -23q-57 -18 -62 -73l2 -37l13 -33l16 -25l25 -16l92 14h280v-61h-280q-80 0 -156 -39t-112 -104q-20 -37 -21 -86q0 -90 69.5 -159t176.5 -69q170 0 264 74l-2 14l-2 19l-4 16q-2 10 -4 12l-19 45l-30 48 l163 2q45 -86 45 -170q0 -172 -147 -265l-37 19q45 59 45 145l-6 54l-2 12q-125 -102 -264 -103q-174 0 -293 86t-119 220q0 82 70 159q59 68 176 105q-35 18 -57.5 52t-22.5 71q0 68 58.5 117t144.5 49l246 2v122h-658z" />
<glyph unicode="&#xcd;" horiz-adv-x="911" d="M0 1087v66h926v-66h-160v-167q-35 14 -86 16l-160 8q-53 2 -114 -18q-43 -14 -84 -49q-84 -59 -84 -160q0 -76 84 -137q57 -43 141 -56q27 -4 57 -4q229 0 338 105l31 -41q-59 -59 -178 -99l-113 -24l-115 -8q-29 0 -96 -15q-96 -35 -131 -112q-18 -39 -18 -82 q0 -74 81 -138q92 -57 201 -57q197 0 320 115l43 -41q-158 -145 -400 -146q-178 0 -288 72q-61 39 -91 86t-30 109q0 76 71 141q35 31 84 53l107 33q-162 49 -246 176q-16 37 -16 70q0 111 119 186l61 31l70 24l75 15l84 6l142 2v106h-625z" />
<glyph unicode="&#xce;" horiz-adv-x="911" d="M-4 1087v66h926v-66h-160v-184l-88 10l-158 5q-57 2 -108 -17q-109 -27 -154 -108q-20 -37 -21 -76q0 -82 84 -144q57 -43 142 -55q27 -4 57 -4q203 0 350 123l19 -53q-74 -55 -144 -86q-53 -25 -133 -39q109 -23 199 -99q78 -66 78 -135q0 -113 -119 -190 q-53 -35 -131 -55.5t-156 -20.5q-172 0 -291 74q-61 39 -90.5 86t-29.5 106q0 70 75.5 135.5t200.5 98.5q-172 18 -256 166q-20 47 -20 92q0 111 118 186l62 31l69 24l78 15l84 6l142 2v106h-625zM233 225q0 -43 21 -82q35 -74 129 -110q59 -16 96 -15q111 7 172 62 q20 18 60 72q14 31 14 73q0 59 -42 111.5t-99.5 72t-104.5 19.5q-53 0 -96 -14q-94 -35 -131 -113q-18 -37 -19 -76z" />
<glyph unicode="&#xcf;" horiz-adv-x="901" d="M4 1087v66h909v-66h-184v-172l-123 13l-123 4q-41 2 -69 -8l-58 -19q-51 -29 -51 -65q0 -18 8 -35l31 -31l45 -20l51 -6l185 2q53 0 86 -15q37 -6 73 -33q68 -39 68 -108q0 -70 -107 -131q-39 -23 -116 -41q-51 -12 -140 -12h-86q-18 4 -24 4l-74 14l-6 -16q0 -43 39 -78 l43 -23q27 -6 59 -6l185 2q96 2 161 -41q57 -39 66 -102q0 -59 -57 -105q-104 -82 -293 -82q-254 0 -473 187l30 45l88 -68l99 -51l98 -31q61 -10 96 -10q109 0 162 35q66 35 66 80q0 25 -29 53q-16 14 -37 21l-39 6l-203 2q-49 0 -81 8q-82 27 -113 90q-14 37 -14 66 q2 10 16 36l27 25l-54 31l-47 30l-39 31l-26 31l30 33q166 -143 381 -144q57 0 86 9q47 4 90 28q51 31 52 74q0 39 -33 63l-35 21l-37 8l-203 2q-90 0 -147 41q-31 20 -44 47t-17 64q0 63 84 108q78 43 204 45l123 2v92h-559z" />
<glyph unicode="&#xd0;" />
<glyph unicode="&#xd1;" horiz-adv-x="1454" d="M-29 1087v66h1489v-66h-674v-245q129 102 265 102q102 0 189 -58.5t126 -158.5q27 -70 27 -133q0 -139 -99 -242q-51 -53 -112 -82q-53 -25 -131 -24h-27l-41 4l-25 8l-28 8l-58 25l-24 16v43l61 -12l80 -4q53 -2 101 16q76 31 118.5 97.5t42.5 146.5q0 96 -82 180 q-51 53 -137 72q-29 6 -55 6q-25 0 -37 -4q-18 0 -27 -4l-22 -4l-29 -6l-35 -15q-20 -6 -41 -22v-549l7 -41q6 -18 18 -31l35 -22l39 -7v-41h-344v44q61 -14 90 57l8 39v104q-137 -104 -264 -104q-147 0 -247.5 101.5t-100.5 246.5t102 246q53 53 113 78q70 31 133 26l39 -2 q14 0 35.5 -2t37.5 -10l37 -15q41 -16 62 -32l53 -43v247h-668zM174 594q0 -113 76 -187.5t186 -74.5h27q37 0 82 14t94 47v406l-49 24l-53 21l-54 10l-47 4q-53 5 -102 -20q-96 -37 -139 -140q-20 -49 -21 -104zM334 -121q0 88 92 158q68 49 166 63q29 4 67 4h150l-16 -53 l-134 -6q-66 -2 -131 -47q-23 -23 -38 -53.5t-15 -65.5q0 -74 55.5 -129t128.5 -55h209v-62h-209q-90 0 -172 39q-92 41 -129 113q-25 45 -24 94z" />
<glyph unicode="&#xd2;" horiz-adv-x="1085" d="M47 410q0 43 21 82q35 72 118 102q55 18 105 18l141 2v123l-55 -16l-66 -4q-53 -4 -106 18q-90 33 -139 119q-18 41 -19 90q0 147 162 205q49 16 102 16t90 -12l11 -4q106 -37 147 -119q20 -43 21 -86v-330h202v473h-61v66h362v-66h-159v-839q0 -43 30 -74l35 -22l39 -7 v-39h-350v41q45 0 74 25q14 12 22 33l8 41v307h-202v-141q0 -82 -77 -143.5t-192 -61.5q-55 0 -106 16q-84 25 -139 107q-18 37 -19 80zM188 410q0 -78 35 -117q16 -25 39 -37q14 -6 49 -10q31 4 45 10l39 37q29 39 37 117v143h-98q-53 0 -98 -41q-23 -20 -37 -49 q-6 -18 -11 -53zM188 944q0 -82 35 -125q39 -53 88 -53q49 6 82 49q39 51 39 129q0 45 -10 68q-10 63 -64 94q-18 10 -47 14q-27 0 -49 -14l-39 -37q-16 -23 -26 -57z" />
<glyph unicode="&#xd3;" horiz-adv-x="1146" d="M12 1087v66h1141v-66h-166l6 -880q6 -18 23 -33l33 -22l43 -7v-39h-351v41q45 0 74 25q14 12 23 33l8 41v166q-90 -135 -225 -174q-43 -12 -93 -13q-172 0 -294.5 123t-122.5 307l104 2l64 7q29 6 51 26q45 31 45 88q0 29 -35 53q-23 14 -51 21l-56 6l-202 2v74h202 q68 0 109 -16q180 -51 180 -158q0 -61 -80 -105q-27 -14 -88 -32q-51 -10 -102 -11q0 -131 82 -213q88 -92 207 -92q100 0 202 60q55 33 103 92v628h-834z" />
<glyph unicode="&#xd4;" horiz-adv-x="901" d="M-10 1087v66h925v-66h-184v-172l-123 13l-123 4q-37 2 -86 -12q-57 -14 -73 -39q-8 -14 -13 -41q0 -18 9 -35l28 -31l43 -20l49 -6l185 2q55 0 88 -15q37 -6 73 -33q66 -39 66 -108q0 -74 -103.5 -129t-252.5 -55q-57 0 -115 -17q-119 -35 -166 -110q-20 -33 -20 -76 q0 -84 55 -138.5t141 -68.5q29 -6 49 -4l33 2l25 2l35 8q-92 45 -93 127q0 55 60 94q27 16 80 31q31 8 69 8q76 0 129 -43q45 -29 56 -102q0 -74 -113 -133q-72 -37 -199 -51q-39 -4 -82 -5q-166 0 -285.5 78t-119.5 195q0 80 78 139q66 49 204 82q-195 57 -282 166l31 33 q160 -143 374 -144q104 0 166 32t62 79q0 45 -31 63q-10 12 -33 21l-41 8l-203 2q-49 0 -80.5 10.5t-61.5 32t-43 47t-17 62.5q0 74 123 123q74 29 159 30l123 2v92h-575zM559 104q0 -57 37 -98q36 9 61 23l50 26q35 25 43 68q0 23 -9 41l-18 33q-10 12 -33 20l-39 8 q-41 0 -66.5 -32.5t-25.5 -88.5z" />
<glyph unicode="&#xd5;" />
<glyph unicode="&#xd6;" horiz-adv-x="1003" d="M-14 1087v66h1030v-66h-207v-202h-332q-57 0 -94 -11q-51 -6 -80 -22q-61 -18 -72 -74q0 -25 17 -47l51 -41q33 -18 78 -26l94 -9l154 2q80 2 136 -19.5t95 -62.5l191 3v-62h-148l4 -24l2 -39q6 -113 -109.5 -202t-275.5 -87l-110 2q117 -117 190 -113l41 2q23 4 43 11 l41 14l39 24l18 -53q-59 -55 -200 -55q-152 0 -277 72q-57 31 -121 100q-51 57 -104 117q-41 39 -70 45v39h203q12 -23 49 -66l86 -78l111 2q135 2 220 64.5t85 161.5q0 53 -50 97t-132 44l-203 2q-133 2 -207 51q-82 53 -82 131q0 66 94.5 115t231.5 51l246 2v141h-676z " />
<glyph unicode="&#xd7;" />
<glyph unicode="&#xd8;" horiz-adv-x="1474" d="M-94 63q336 0 600 164q78 47 153 111l-2 -25q-127 -113 -188 -153l-166 -111q-63 -41 -188 -82q-96 -31 -176 -30zM-4 1087v66h1489v-66h-674v-245q129 102 264 102q102 0 189.5 -58.5t126.5 -158.5q27 -70 26 -133q0 -139 -98 -242q-51 -53 -113 -82q-53 -25 -131 -24 h-26l-41 4l-25 8l-29 8l-57 25l-25 16v43l62 -12l80 -4q53 -2 100 16q76 31 119 97.5t43 146.5q0 96 -82 180q-51 53 -137 72q-29 6 -56 6q-25 0 -36 -4q-18 0 -27 -4l-23 -4l-28 -6l-35 -15q-20 -6 -41 -22v-549l6 -41q6 -18 19 -31l34 -22l39 -7v-41h-344v44q61 -14 90 57 l9 39v104q-137 -104 -265 -104q-147 0 -247.5 101.5t-100.5 246.5t103 246q53 53 112 78q70 31 133 26l39 -2q14 0 36 -2t38 -10l37 -15q41 -16 61 -32l54 -43v247h-668zM199 594q0 -113 75.5 -187.5t186.5 -74.5h26q37 0 82 14t95 47v406l-50 24l-53 21l-53 10l-47 4 q-54 5 -103 -20q-96 -37 -139 -140q-20 -49 -20 -104z" />
<glyph unicode="&#xd9;" horiz-adv-x="768" d="M-25 1087v66h809v-66h-809zM-18 780v62h612q100 -1 227 -107v-59q-100 84 -196 84q-88 0 -163 -50.5t-112 -129.5q-20 -45 -20 -109q0 -96 57 -219q18 -41 47 -88l-123 -58l-53 103l-39 94l-22 88l-9 80q0 111 45 199q43 82 117 108z" />
<glyph unicode="&#xda;" horiz-adv-x="563" d="M-8 1087v66h594v-66h-594zM2 821l141 2q40 -112 183 -157q53 -10 88 -11l202 2v-73h-202q-156 0 -260 63q-119 70 -152 174z" />
<glyph unicode="&#xdb;" horiz-adv-x="1751" d="M12 1087v66h1747v-66h-166v-839q0 -43 31 -74l35 -22l41 -7v-39h-350v41q45 0 73 25q14 12 23 33l8 41v362l-528 -381l-56 52l400 286q-84 145 -182.5 231.5t-186.5 86.5l-22 -2l-15 -2l-16 -7l-25 -8l-26 -16l-19 -21l-30 45q96 109 215 109q49 0 104 -23 q119 -49 215 -172q47 -61 98 -143l74 57v387h-1104q63 -18 126 -55t95 -76q86 -82 86 -196q0 -137 -110 -223q-119 -96 -277 -97l92 -102l91 -78l75 -49q29 -12 60 -16q78 0 141 51l19 -49q-10 -18 -37 -41l-52 -29q-20 -12 -59 -18l-65 -5q-94 -6 -187 56q-53 35 -88 71 q-27 29 -70 99q-14 29 -34 49l-41 41q-20 20 -43 31l-47 20v45q29 -10 77 -20l107 -7q127 -8 217 82.5t90 206.5q0 176 -188 264q-57 27 -138 43zM657 551l23 63q31 -18 68 -30l73 -9h35q25 6 74 21q12 4 33 16l24 -59l-76 -31l-77 -8q-84 0 -140 21q-14 4 -37 16z" />
<glyph unicode="&#xdc;" horiz-adv-x="808" d="M10 551v63l135 27q20 0 31 4l25 6l18 6l19 11q-128 53 -189 168q-12 20 -24 49q-14 61 -15 96q0 98 87 172t220 74q129 0 218.5 -74t89.5 -172q0 -45 -17 -88q-37 -96 -123 -162q-35 -27 -94 -57l375 -66v-55l-373 63l-76 21q-16 -8 -71 -29q-18 -6 -56 -18zM152 963 q0 -66 41 -140q57 -80 124 -118q166 100 166 258q0 88 -49 153.5t-117 65.5q-35 0 -65 -17q-61 -35 -88 -114q-12 -39 -12 -88z" />
<glyph unicode="&#xdd;" horiz-adv-x="1331" d="M-170 115q338 0 602 164q78 47 154 110v-70q-180 -158 -355 -239q-195 -92 -368 -92zM-4 1087v66h1350v-66h-619v-227q88 84 225 84q129 0 227.5 -102.5t98.5 -247.5q0 -139 -94 -243.5t-232 -104.5q-66 0 -139 41v45l47 -19l49 -4q88 -8 160 80q49 61 64 143q4 25 4 62 q0 63 -19 117q-25 72 -82 122t-127 50q-76 0 -182 -86v-549l6 -41q6 -16 23 -33l35 -22l38 -7v-39h-348v41q45 0 74 25q14 12 23 33l8 41v153l-58 -43l-57 -26l-27 -11l-28 -6l-29 -4l-29 -2q-51 -4 -108 19q-156 59 -156 206v555h-98zM236 578q0 -78 48.5 -132.5 t116.5 -54.5q43 0 82 17q47 20 103 51v628h-350v-509z" />
<glyph unicode="&#xde;" horiz-adv-x="778" d="M59 768l4 14l15 23l20 16l25 8q102 35 143 76q12 12 23 37l8 41l-2 16l-2 11h8l2 -29h-43l-18 4l-11 4l-8 4q-10 2 -12 4l-8 9q-20 20 -31 36l-8 50q0 53 33 82q18 16 39 24l45 8q49 0 106 -45l19 -24l14 -29l8 -35l4 -41q0 -84 -52 -160.5t-130 -111.5q-51 -23 -115 -23 h-18q-51 0 -58 31zM371 768l2 16l12 17l21 14l26 14q94 27 143 76q12 12 23 37l8 41l-2 16l-2 11h8l2 -29h-43l-18 4l-10 4l-9 4q-10 2 -12 4l-8 9q-20 20 -31 36l-8 50q0 53 33 82q18 16 39 24l45 8q49 0 106 -45l19 -24l14 -29l8 -35l4 -41q0 -84 -52 -160.5t-130 -111.5 q-51 -23 -113 -23h-18q-51 0 -57 31z" />
<glyph unicode="&#xdf;" horiz-adv-x="870" d="M123 971q0 111 82 205l41 32l49 29q25 14 57 18l64 9l18 4q49 0 58 -35l-7 -16l-14 -19l-43 -20q-78 -16 -117 -60q-18 -12 -26 -39l-9 -55l54 -12q12 -2 20 -11l17 -14q12 -10 20 -35l8 -43q0 -53 -33 -86l-16 -10l-18 -8l-23 -6l-26 -2q-53 -4 -104.5 43t-51.5 131z M451 971q0 111 81 205l41 32l50 29q25 14 57 18l63 9l19 4q49 0 57 -35l-6 -16l-14 -19l-43 -20q-78 -20 -117 -60q-20 -20 -31 -41l-8 -51q29 0 52.5 -9t39.5 -28q14 -10 23 -35l8 -45q0 -53 -33 -86l-16 -10l-19 -8l-22 -6l-27 -2q-53 -4 -104 43t-51 131z" />
<glyph unicode="&#xe0;" horiz-adv-x="1085" d="M14 1087v66h1084v-66h-275v-184h-288q-43 0 -72 -7t-57 -26q-53 -25 -56 -73q0 -27 4 -47l15 -41l10 -17l14 -18l17 4l26 6l29 6l27 6l98 11q164 0 281.5 -76t117.5 -178v-287l12 -21l17 -10l26 -6v-23h-258v25q61 0 62 59v111q-80 119 -154 127l19 -20l18 -25l10 -31 l9 -35q0 -31 -15 -63q-10 -25 -37 -53l-26 -21l-29 -14l-33 -10l-39 -2q-70 -4 -124 45t-54 118q0 39 15 68q18 47 68 79t102 32q145 0 270 -93v58q0 78 -78 136t-192 58q-102 0 -191.5 -57t-132.5 -152q-27 -57 -27 -129q0 -147 111 -249.5t258 -102.5v-49q-113 0 -205 29 q-199 61 -285 215q-37 66 -36 157q0 248 262 338l-49 23q-14 6 -41 33l-25 39l-8 41q0 68 67.5 120t159.5 52l246 2v122h-668zM485 317l7 -47l18 -41l27 -30l34 -9l29 9l27 28q12 20 18 41l6 49l-6 52q-6 27 -16 43q-12 37 -51 41q-39 0 -66 -41l-8 -13l-6 -16l-11 -33z" />
<glyph unicode="&#xe1;" horiz-adv-x="1454" d="M-16 1087v66h1491v-66h-154l10 -894l15 -19l32 -22l41 -7v-39h-344v41l21 -2q14 2 18 5l14 8l17 14l20 35l9 39v123q-39 -76 -132.5 -130.5t-212.5 -54.5q-143 0 -241 78q-55 43 -81 89t-26 108h60q37 4 112 33q33 18 53.5 40.5t20.5 49.5q0 41 -41 82q-35 29 -102 34 q-164 0 -275 -90q-61 -51 -90 -110q-20 -49 -20 -107q0 -150 129 -252q63 -49 143 -78q70 -25 174 -24q127 0 203 67l-80 -127h-123q-258 0 -430 123q-182 127 -182 297q0 111 72.5 196t191.5 124q-27 4 -49 14l-39 25q-14 10 -27 30l-8 35q0 55 64 101l30 16l35 14l39 6 l47 5l256 2v122h-661zM322 801l12 -25l24 -26l64 10l162 2q78 0 168 -31q20 -8 47 -26q92 -47 92 -130q0 -29 -18.5 -56t-55.5 -52q-45 -23 -80 -35q-51 -10 -92 -10q6 -33 25 -64q18 -23 53 -47l68 -32q43 -10 81 -11q98 0 175 42t127 130v647h-388v-184h-329q18 0 -60 -14 q-12 -2 -26 -10l-35 -27q-10 -10 -14 -31v-20z" />
<glyph unicode="&#xe2;" horiz-adv-x="942" d="M12 1087v66h944v-66h-141v-184h-332q18 0 -59 -14q-12 -2 -27 -10l-35 -27q-10 -10 -14 -31v-20l12 -25l25 -26l72 8l112 4q113 4 234 -45q53 -23 75.5 -47.5t22.5 -57.5q0 -37 -57 -69l-66 -29l-86 -25q-23 0 -45 -10l-39 -18l-28 -25l-11 -26q0 -10 13 -29l36 -29 q27 -12 54 -18l63 -4l154 2v-62h-273l-45 6l-41 13l-43 20q-33 14 -59 45q-18 25 -18 56q0 49 53 77l26 15l31 12l37 8l49 6l51 13l41 24q37 29 37 72q0 18 -51 45l-53 16l-62 7q-139 0 -239 -89q-104 -94 -105 -225q0 -150 127 -248q70 -55 145.5 -80.5t176.5 -25.5 q127 0 203 67l-80 -127h-123q-248 0 -430.5 121t-182.5 293t158 279q39 27 105 47l-50 12q-20 10 -36 29l-29 33l-8 36q0 53 69 95q63 37 129 41h29l246 2v122h-662z" />
<glyph unicode="&#xe3;" horiz-adv-x="1382" d="M-27 1087v66h1436v-66h-160l6 -882q6 -18 21 -33l31 -20l41 -7v-39h-344v41l20 -2q14 2 18 5l15 8l16 14l21 33l8 39v241h-172q0 -84 -39 -157q-43 -80 -115 -113q-47 -20 -96 -20q-150 0 -213 118q-14 39 -14 78q0 63 57 110.5t145 49.5l133 2q0 31 -16 55 q-25 55 -110 78q-47 12 -87 12q-86 0 -161 -24q-137 -47 -199 -166q-27 -51 -27 -117q0 -137 131.5 -237.5t315.5 -100.5q150 0 203 62l-80 -119h-123q-256 0 -430 115q-182 121 -182 280q0 104 71 199q55 70 133 106q20 8 60 21q-80 12 -121 82l-8 41q0 59 74.5 99 t177.5 40l225 2v106h-662zM311 801l13 -25l24 -26l64 10l163 2q82 0 121 -17q59 -14 105 -43q88 -43 129 -151l172 2v534h-324v-167h-307q-78 0 -111 -27q-49 -23 -49 -72v-20zM557 360q0 -88 66 -114l43 -8q51 8 84 67q39 70 38 178l-133 2q-18 0 -34.5 -9t-34.5 -30 l-23 -40z" />
<glyph unicode="&#xe4;" horiz-adv-x="1628" d="M-25 1087v66h1667v-66h-679v-245q63 51 127.5 76.5t134.5 25.5q141 0 245 -100q51 -51 78 -118t27 -132q0 -109 -58.5 -196t-156.5 -130q-66 -29 -135 -24l-37 2q-18 0 -33 8l-16 6l-15 6l-14 4l-12 6l-27 13l-31 16l13 45l55 -16l55 -4q102 -8 191 76q80 76 80 188 q0 96 -82 180q-76 78 -195 78q-111 0 -194 -55v-551l6 -41q6 -18 20 -33l10 -8l17 -8l22 -9l27 -2v-39h-348v41q45 0 74 25q14 12 22 33l8 39v518l-45 26l-51 27q-20 10 -53 19l-47 6q-131 0 -222.5 -94.5t-91.5 -225.5q0 -70 21 -127q35 -111 133 -186l-123 -70 q-78 53 -131 166q-41 86 -45 180q-2 23 -2 37q0 115 63 207q45 70 109 104q8 4 55 27l-409 2v60h550q160 0 289 -99v266h-846z" />
<glyph unicode="&#xe5;" horiz-adv-x="788" d="M47 612q0 125 77 223.5t200 120.5q31 4 67 7q76 2 133 -27q96 -37 155.5 -130t59.5 -200q0 -137 -100 -237.5t-248 -100.5q-145 0 -244.5 100.5t-99.5 243.5zM188 612q0 -125 58 -206q29 -43 67.5 -66t77.5 -23q97 8 148 86q61 88 61 209q0 76 -16 113q-16 72 -68 127 q-57 61 -125 61q-80 0 -141.5 -86t-61.5 -215z" />
<glyph unicode="&#xe6;" horiz-adv-x="983" d="M-25 1087v66h1006v-66l-152 9l-2 -236h-280q-139 0 -244.5 -95t-105.5 -233q0 -129 99 -218t251 -89q51 0 111.5 20.5t107.5 59.5l-2 14l-2 17l-2 12l-2 17q0 14 -8 30l-13 35q-6 29 -22 51l-29 51l166 3l14 -31l13 -25l10 -28l8 -27l6 -27l6 -22l2 -27l2 -31 q6 -78 -49 -180q-49 -88 -135 -141h-59l43 45l35 63q8 25 22 74l8 78l-55 -49l-70 -41l-78 -23l-83 -8q-186 0 -322 119q-74 63 -106.5 136t-32.5 161q0 152 118.5 258t292.5 109l244 2v167h-711zM16 -49q231 0 428 78q166 66 332 198l-6 -43q-272 -254 -547 -334 q-96 -27 -176 -26z" />
<glyph unicode="&#xe7;" horiz-adv-x="1064" d="M-8 1087v66h1085v-66h-159l6 -880q10 -20 22 -31l31 -22l39 -7v-41h-344v44q66 -12 96 57l8 39v301q-125 -229 -350 -230q-156 0 -258 111q-115 121 -109 270l2 50q2 31 9 51q4 33 10 49l18 49q16 45 49 96l31 47q12 20 35 45zM16 201q227 0 424 78q168 66 336 198v-33 q-109 -98 -180 -151q-27 -20 -86 -57q-25 -16 -86 -52l-100 -49l-97 -35l-92 -22l-88 -6zM199 698q0 -121 82 -211t188 -90q82 0 160 64q14 12 39 33q55 45 108 143v450h-399q-88 -104 -133 -202.5t-45 -186.5z" />
<glyph unicode="&#xe8;" horiz-adv-x="778" d="M59 471q0 94 55.5 167t147.5 97q-38 11 -67 29q-35 23 -54 49l-18 27l-14 32l-11 33l-2 39q-2 41 21 80q37 76 143 109q68 18 125 18q176 0 244 -104q20 -35 20 -68q0 -80 -59 -113l-39 -8q-45 0 -76 31l-22 35l-7 39l7 38q12 37 57 56l41 8q-37 37 -123 37 q-74 0 -129 -44t-55 -114q0 -121 112 -172q33 -14 72 -12l37 2v-62h-62q-43 0 -79 -18q-70 -27 -109 -113q-14 -43 -14 -80q0 -82 73 -155q78 -66 172 -66q78 0 152 31q68 27 129 92q27 29 70 92l16 -53q-47 -86 -133 -151q-72 -53 -156 -80q-53 -16 -121 -17 q-147 0 -241 82q-102 86 -103 207z" />
<glyph unicode="&#xe9;" horiz-adv-x="1187" d="M-23 1087v66h1221v-66h-160v-841q0 -41 31 -72l35 -22l39 -7v-39h-344v41l20 -2q14 2 19 5l14 8l16 14l21 33l8 39v266l-483 -178q18 -12 32.5 -30.5t28.5 -57.5l10 -62q0 -74 -30 -110q-18 -41 -90 -72l-58 -8q-96 0 -149 69l-27 54l-10 30l-2 33v33q6 20 31 70 q39 53 98 73l649 230v110l-514 135l8 -26l4 -35l-6 -49q-10 -88 -123 -141q-31 -10 -63 -11l-35 4q-98 12 -139 115q-12 41 -11 66l2 34q16 68 73 108t126 40h35l643 -160v313h-920zM88 760l2 -43l21 -39q14 -20 34 -31l54 -16h22q25 0 37 4l33 18l26 31l17 45l2 27 q2 33 -29 73l-31 25l-40 16l-11 2h-8q-27 0 -43 -8l-37 -18q-18 -12 -30.5 -33.5t-18.5 -52.5zM182 166q2 -10 4 -12l7 -13q8 -25 16 -39l29 -28l32 -19l37 -4l39 10q21 5 31 17l26 33l9 16l8 18l4 21l2 20l-6 37l-19 31l-28 25l-35 16l-37 6l-25 -2l-22 -6 q-72 -20 -72 -107v-20z" />
<glyph unicode="&#xea;" horiz-adv-x="911" d="M0 1087v66h926v-66h-160v-167q-35 14 -86 16l-160 8q-53 2 -114 -18q-43 -14 -84 -49q-84 -59 -84 -160q0 -76 84 -137q57 -43 141 -56q27 -4 57 -4q229 0 338 105l31 -41q-59 -59 -178 -99l-113 -24l-115 -8q-29 0 -96 -15q-96 -35 -131 -112q-18 -39 -18 -82 q0 -74 81 -138q92 -57 201 -57q197 0 320 115l43 -41q-158 -145 -400 -146q-178 0 -288 72q-61 39 -91 86t-30 109q0 76 71 141q35 31 84 53l107 33q-162 49 -246 176q-16 37 -16 70q0 111 119 186l61 31l70 24l75 15l84 6l142 2v106h-625z" />
<glyph unicode="&#xeb;" horiz-adv-x="911" d="M-4 1087v66h926v-66h-160v-184l-88 10l-158 5q-57 2 -108 -17q-109 -27 -154 -108q-20 -37 -21 -76q0 -82 84 -144q57 -43 142 -55q27 -4 57 -4q203 0 350 123l19 -53q-74 -55 -144 -86q-53 -25 -133 -39q109 -23 199 -99q78 -66 78 -135q0 -113 -119 -190 q-53 -35 -131 -55.5t-156 -20.5q-172 0 -291 74q-61 39 -90.5 86t-29.5 106q0 70 75.5 135.5t200.5 98.5q-172 18 -256 166q-20 47 -20 92q0 111 118 186l62 31l69 24l78 15l84 6l142 2v106h-625zM233 225q0 -43 21 -82q35 -74 129 -110q59 -16 96 -15q111 7 172 62 q20 18 60 72q14 31 14 73q0 59 -42 111.5t-99.5 72t-104.5 19.5q-53 0 -96 -14q-94 -35 -131 -113q-18 -37 -19 -76z" />
<glyph unicode="&#xec;" horiz-adv-x="901" d="M4 1087v66h909v-66h-184v-172l-123 13l-123 4q-41 2 -69 -8l-58 -19q-51 -29 -51 -65q0 -18 8 -35l31 -31l45 -20l51 -6l185 2q53 0 86 -15q37 -6 73 -33q68 -39 68 -108q0 -70 -107 -131q-39 -23 -116 -41q-51 -12 -140 -12h-86q-18 4 -24 4l-74 14l-6 -16q0 -43 39 -78 l43 -23q27 -6 59 -6l185 2q96 2 161 -41q57 -39 66 -102q0 -59 -57 -105q-104 -82 -293 -82q-254 0 -473 187l30 45l88 -68l99 -51l98 -31q61 -10 96 -10q109 0 162 35q66 35 66 80q0 25 -29 53q-16 14 -37 21l-39 6l-203 2q-49 0 -81 8q-82 27 -113 90q-14 37 -14 66 q2 10 16 36l27 25l-54 31l-47 30l-39 31l-26 31l30 33q166 -143 381 -144q57 0 86 9q47 4 90 28q51 31 52 74q0 39 -33 63l-35 21l-37 8l-203 2q-90 0 -147 41q-31 20 -44 47t-17 64q0 63 84 108q78 43 204 45l123 2v92h-559z" />
<glyph unicode="&#xed;" horiz-adv-x="921" d="M8 1087v66h932v-66h-127v-184h-246q-49 0 -80 -10q-43 -6 -67 -23q-57 -18 -62 -73l2 -37l13 -33l16 -25l25 -16l92 14h280v-61h-280q-80 0 -156 -39t-112 -104q-20 -37 -21 -86q0 -90 69.5 -159t176.5 -69q170 0 264 74l-2 14l-2 19l-4 16q-2 10 -4 12l-19 45l-30 48 l163 2q45 -86 45 -170q0 -172 -147 -265l-37 19q45 59 45 145l-6 54l-2 12q-125 -102 -264 -103q-174 0 -293 86t-119 220q0 82 70 159q59 68 176 105q-35 18 -57.5 52t-22.5 71q0 68 58.5 117t144.5 49l246 2v122h-658z" />
<glyph unicode="&#xee;" horiz-adv-x="1146" d="M12 1087v66h1141v-66h-166l6 -880q6 -18 23 -33l33 -22l43 -7v-39h-351v41q45 0 74 25q14 12 23 33l8 41v166q-90 -135 -225 -174q-43 -12 -93 -13q-172 0 -294.5 123t-122.5 307l104 2l64 7q29 6 51 26q45 31 45 88q0 29 -35 53q-23 14 -51 21l-56 6l-202 2v74h202 q68 0 109 -16q180 -51 180 -158q0 -61 -80 -105q-27 -14 -88 -32q-51 -10 -102 -11q0 -131 82 -213q88 -92 207 -92q100 0 202 60q55 33 103 92v628h-834z" />
<glyph unicode="&#xef;" horiz-adv-x="901" d="M-10 1087v66h925v-66h-184v-172l-123 13l-123 4q-37 2 -86 -12q-57 -14 -73 -39q-8 -14 -13 -41q0 -18 9 -35l28 -31l43 -20l49 -6l185 2q55 0 88 -15q37 -6 73 -33q66 -39 66 -108q0 -74 -103.5 -129t-252.5 -55q-57 0 -115 -17q-119 -35 -166 -110q-20 -33 -20 -76 q0 -84 55 -138.5t141 -68.5q29 -6 49 -4l33 2l25 2l35 8q-92 45 -93 127q0 55 60 94q27 16 80 31q31 8 69 8q76 0 129 -43q45 -29 56 -102q0 -74 -113 -133q-72 -37 -199 -51q-39 -4 -82 -5q-166 0 -285.5 78t-119.5 195q0 80 78 139q66 49 204 82q-195 57 -282 166l31 33 q160 -143 374 -144q104 0 166 32t62 79q0 45 -31 63q-10 12 -33 21l-41 8l-203 2q-49 0 -80.5 10.5t-61.5 32t-43 47t-17 62.5q0 74 123 123q74 29 159 30l123 2v92h-575zM559 104q0 -57 37 -98q36 9 61 23l50 26q35 25 43 68q0 23 -9 41l-18 33q-10 12 -33 20l-39 8 q-41 0 -66.5 -32.5t-25.5 -88.5z" />
<glyph unicode="&#xf0;" horiz-adv-x="972" d="M8 1087v66h975v-66h-244v-122h-75q59 -23 92 -47q88 -51 125 -132q16 -35 16 -69q0 -70 -76 -142q-59 -55 -205 -104q55 -10 109 -41q172 -96 172 -205q0 -113 -116.5 -189.5t-286.5 -76.5q-172 0 -291 74q-61 39 -91 86t-30 106q0 45 16 78q43 86 131 137q43 25 99 43 q-117 39 -178 103q-68 66 -68 131q0 109 119 194l63 35l68 27l76 14l86 6l49 -4l49 -6v104h-584zM248 225q0 -45 16 -84q45 -86 135 -118q43 -16 95 -17q16 0 38 4q86 10 146.5 70.5t60.5 144.5q0 137 -153 199q-45 16 -92 16q-53 0 -99 -16q-94 -37 -129 -117 q-18 -39 -18 -82zM248 717q0 -135 151 -201q57 -14 95 -14q16 0 36 2q130 12 189 127q20 39 20 86q0 137 -153 198q-45 16 -92 17q-53 0 -99 -17q-94 -37 -129 -116q-18 -39 -18 -82z" />
<glyph unicode="&#xf1;" horiz-adv-x="962" d="M-25 1087v66h1006v-66h-154v-227h-280q-139 0 -244.5 -95t-105.5 -233q0 -129 99 -218t251 -89q51 0 111.5 20.5t107.5 59.5l-2 14l-2 17l-2 12l-2 17q0 14 -8 30l-13 35q-6 29 -22 51l-29 51l166 3l14 -31l13 -25l10 -28l8 -27l6 -27l6 -22l2 -27l2 -31q6 -78 -49 -180 q-49 -88 -135 -141h-59l43 45l35 63q8 25 22 74l8 78l-55 -49l-70 -41l-78 -23l-83 -8q-186 0 -322 119q-74 63 -106.5 136t-32.5 161q0 152 118.5 258t292.5 109l244 2v167h-711zM276 -246q0 137 199 211q66 16 127 17l150 -2l-2 -60h-148q-74 0 -131 -47 q-23 -23 -38 -53.5t-15 -65.5q0 -74 55 -129t129 -55h209v-62h-209q-90 0 -172 39q-92 41 -129 113q-25 45 -25 94z" />
<glyph unicode="&#xf2;" />
<glyph unicode="&#xf3;" horiz-adv-x="1751" d="M12 1087v66h1747v-66h-166v-839q0 -43 31 -74l35 -22l41 -7v-39h-350v41q45 0 73 25q14 12 23 33l8 41v362l-528 -381l-56 52l400 286q-84 145 -182.5 231.5t-186.5 86.5l-22 -2l-15 -2l-16 -7l-25 -8l-26 -16l-19 -21l-30 45q96 109 215 109q49 0 104 -23 q119 -49 215 -172q47 -61 98 -143l74 57v387h-1104q63 -18 126 -55t95 -76q86 -82 86 -196q0 -137 -110 -223q-119 -96 -277 -97l92 -102l91 -78l75 -49q29 -12 60 -16q78 0 141 51l19 -49q-10 -18 -37 -41l-52 -29q-20 -12 -59 -18l-65 -5q-94 -6 -187 56q-53 35 -88 71 q-27 29 -70 99q-14 29 -34 49l-41 41q-20 20 -43 31l-47 20v45q29 -10 77 -20l107 -7q127 -8 217 82.5t90 206.5q0 176 -188 264q-57 27 -138 43zM657 551l23 63q31 -18 68 -30l73 -9h35q25 6 74 21q12 4 33 16l24 -59l-76 -31l-77 -8q-84 0 -140 21q-14 4 -37 16z" />
<glyph unicode="&#xf4;" horiz-adv-x="1515" d="M10 1087v66h1520v-66h-699v-233l64 29l72 26l67 17l62 6q84 0 170 -25q109 -33 145 -88q27 -33 27 -71q4 -47 -84 -93l-103 -37l-125 -24q70 -10 142 -35q139 -47 186 -98q23 -25 27 -51q0 -59 -113 -109q-53 -25 -127 -35q-80 -12 -145 -10l-62 2q-20 0 -59 10l-57 15 l-50 24l25 43l82 -24l59 -9l105 7q92 6 141 57q16 18 18 41q0 49 -98 90q-121 49 -258 63v39h66l63 13q39 8 62 16l63 25q102 39 102 92q0 37 -81 63l-91 21l-104 8q-20 2 -37.5 -1t-26.5 -7l-22 -4l-29 -6l-35 -15q-20 -6 -41 -22l3 -586l8 -18l14 -19l33 -22l41 -7v-39 h-344v41l20 -2q14 2 19 5l14 8l16 14l21 35l8 39v43q-98 -82 -264 -82q-219 0 -324 117q-25 35 -24 73q0 96 110 156q33 16 74 29l-72 34l-61 41q-51 43 -51 91q0 70 91 127t226 57q178 0 295 -80v235h-674zM219 397q0 -23 19 -47q53 -47 141 -65l102 -9l54 3l45 12l51 16 l53 29v137l-49 25l-53 20l-54 10l-47 4q-96 9 -186 -38q-35 -18 -55.5 -43t-20.5 -54zM219 729q0 -23 19 -47q18 -16 59 -36.5t82 -31.5l102 -8h25l47 4l27 8q31 10 51 21l53 29v131l-49 24l-53 21l-54 10l-47 4q-63 7 -143 -20q-72 -25 -100 -60q-18 -23 -19 -49zM561 565 l35 -6l39 -12l33 -12l16 -3v76z" />
<glyph unicode="&#xf5;" horiz-adv-x="0" d="M-1053 1485v37h166q39 0 64 -13q25 -4 53 -26l188 -223l62 -50q23 -10 45 -14l102 2v-45h-229q-16 4 -25 10l-12 6l-14 9l-13 8l-12 10l-217 246l-47 31l-19 6l-24 4zM-803 1595v43h221q31 0 58.5 -19.5t48.5 -55.5l133 -232q35 -59 94 -63l17 2v-41h-142q-63 0 -90 59 l-149 246q-23 51 -90 59zM-412 1571q0 45 23 80q49 96 203 125q14 2 57 4l59 2v-62h-61q-25 0 -50.5 -11t-45.5 -36q-35 -33 -43 -102q0 -139 141 -264l-143 2q-139 119 -140 262zM-190 1509l6 31l18 31l27 20l30 8q19 4 35 -6l29 -18l20 -29l7 -37l-7 -30l-18 -27l-29 -20 l-37 -7l-26 7l-29 18l-18 27z" />
<glyph unicode="&#xf6;" horiz-adv-x="1433" d="M8 1087v66h1428v-66h-152v-227h-283q-139 0 -244.5 -95t-105.5 -233q0 -129 99.5 -218t250.5 -89q127 0 222 82l-4 15l-2 16l-9 33q-6 23 -10 30l-8 27q-6 18 -10 25l-9 24l-12 27l-16 28l160 3q41 -70 57 -160q4 -25 4 -58q0 -100 -47 -184q-51 -90 -137 -137h-62 q78 53 109 184l8 76q-143 -121 -246 -121l-270 -176l20 -37l9 -47q0 -78 -66 -125q-25 -20 -51 -33q-14 -6 -56 -10q-29 0 -49 8.5t-41 28.5l-20 35l-6 41q0 33 15 65.5t42 55.5l14 12l-67 86l-55 -62q-68 -53 -146 -53l-51 6l-45 17q-43 16 -78 59q-53 68 -53 152 q0 156 149 211q41 14 74 14l49 -6q25 -6 47.5 -15.5t38.5 -25.5l39 -37l250 -291l209 133q-160 23 -279 135q-127 119 -127 275q0 147 120 257t292 112l246 2v165h-1135zM127 254q0 -53 39 -109q8 -14 33 -47q72 -90 143 -90l16 2q15 7 23 23l6 28q0 43 -16 70 q-37 90 -123 148q-41 25 -78 24l-16 -4l-13 -6l-10 -14z" />
<glyph unicode="&#xf7;" horiz-adv-x="1003" d="M-14 1087v66h1030v-66h-207v-202h-332q-57 0 -94 -11q-51 -6 -80 -22q-61 -18 -72 -74q0 -25 17 -47l51 -41q33 -18 78 -26l94 -9l154 2q80 2 136 -19.5t95 -62.5l191 3v-62h-148l4 -24l2 -39q6 -113 -109.5 -202t-275.5 -87l-110 2q117 -117 190 -113l41 2q23 4 43 11 l41 14l39 24l18 -53q-59 -55 -200 -55q-152 0 -277 72q-57 31 -121 100q-51 57 -104 117q-41 39 -70 45v39h203q12 -23 49 -66l86 -78l111 2q135 2 220 64.5t85 161.5q0 53 -50 97t-132 44l-203 2q-133 2 -207 51q-82 53 -82 131q0 66 94.5 115t231.5 51l246 2v141h-676z " />
<glyph unicode="&#xf8;" horiz-adv-x="563" d="M39 553l55 43l27 22l33 35q8 8 12 21l14 43l15 71v429q0 37 4 51l14 47l23 43l28 43q57 86 174 86q20 0 33 -4l31 -6l184 2v-101h-182q-39 0 -70 -14q-70 -23 -102 -84q-14 -37 -15 -70v-422l-12 -83q0 -18 -8 -33l-8 -21l-31 -43l-84 -55l55 -37l7 -8l8 -4l4 -6l6 -6 l14 -21l31 -82l14 -51l4 -41v-418q0 -76 50 -115q41 -33 106 -38h31h182v-117h-186q-76 0 -129 16q-84 27 -130 94.5t-46 155.5v428q0 37 -11 64q-6 41 -26 67l-23 31l-24 27z" />
<glyph unicode="&#xf9;" horiz-adv-x="1198" d="M0 1087v66h1196v-66h-166v-839q0 -43 31 -74l35 -22l39 -7v-39h-342v41l16 -2l16 2l15 9l20 16l21 35l8 39v196h-244v-73q0 -35 -18 -72q-39 -59 -99 -84l-36 -16q-43 -12 -93 -13q-98 0 -172 47q-39 23 -56 53.5t-17 63.5q0 63 68.5 113.5t176.5 52.5l105 2v154h-203 q-53 0 -104 8q-98 25 -148 82q-18 29 -18 61q0 59 78.5 108.5t197.5 51.5l197 2v104h-504zM197 821q0 -47 47 -76l51 -22l67 -6l142 2q0 53 59 59l82 2l19 -6q14 -6 18 -8l12 -16l6 -21q0 -14 -4 -22l-10 -15l-18 -12l-23 -6v-158h244v571h-244v-165h-246q-45 0 -80 -11 q-78 -10 -106 -49q-12 -18 -16 -41zM301 322l4 -21l8 -20l13 -21q14 -18 34 -27l39 -8q68 0 97 84l8 58v75h-105q-23 0 -39 -10l-30 -18l-23 -29l-6 -37v-26z" />
<glyph unicode="&#x152;" horiz-adv-x="788" d="M47 612q0 125 77 223.5t200 120.5q31 4 67 7q76 2 133 -27q96 -37 155.5 -130t59.5 -200q0 -137 -100 -237.5t-248 -100.5q-145 0 -244.5 100.5t-99.5 243.5zM188 612q0 -125 58 -206q29 -43 67.5 -66t77.5 -23q97 8 148 86q61 88 61 209q0 76 -16 113q-16 72 -68 127 q-57 61 -125 61q-80 0 -141.5 -86t-61.5 -215z" />
<glyph unicode="&#x153;" />
<glyph unicode="&#x178;" horiz-adv-x="768" d="M-25 1087v66h809v-66h-809zM-18 780v62h612q100 -1 227 -107v-59q-100 84 -196 84q-88 0 -163 -50.5t-112 -129.5q-20 -45 -20 -109q0 -96 57 -219q18 -41 47 -88l-123 -58l-53 103l-39 94l-22 88l-9 80q0 111 45 199q43 82 117 108z" />
<glyph unicode="&#x2c6;" horiz-adv-x="942" d="M86 514q0 82 74 152q49 47 135 75q23 8 61 19q-98 37 -149 94l-27 31l-18 30l-12 29l-3 35q-6 100 99.5 172t249.5 74q130 2 288 -92l-24 -46q-84 76 -244 76q-86 0 -156 -53q-35 -27 -50 -61.5t-15 -69.5q0 -109 123 -174q45 -14 78 -14l122 2v-62h-122q-104 0 -185 -69 q-31 -27 -59 -74q-18 -37 -19 -86q0 -92 74 -166q37 -31 87 -50.5t102 -17.5l63 2q33 2 55 11l45 18l39 31l4 35v20l-2 14l-2 11l148 2q0 -139 -68 -260q-72 -133 -190 -187l-31 31l47 45l41 65q18 31 31 76l22 86q-61 -61 -202 -61q-174 0 -287 86q-63 47 -93 101.5 t-30 119.5z" />
<glyph unicode="&#x2dc;" horiz-adv-x="1433" d="M8 1087v66h1428v-66h-152v-227h-283q-139 0 -244.5 -95t-105.5 -233q0 -129 99.5 -218t250.5 -89q127 0 222 82l-4 15l-2 16l-9 33q-6 23 -10 30l-8 27q-6 18 -10 25l-9 24l-12 27l-16 28l160 3q41 -70 57 -160q4 -25 4 -58q0 -100 -47 -184q-51 -90 -137 -137h-62 q78 53 109 184l8 76q-143 -121 -246 -121l-270 -176l20 -37l9 -47q0 -78 -66 -125q-25 -20 -51 -33q-14 -6 -56 -10q-29 0 -49 8.5t-41 28.5l-20 35l-6 41q0 33 15 65.5t42 55.5l14 12l-67 86l-55 -62q-68 -53 -146 -53l-51 6l-45 17q-43 16 -78 59q-53 68 -53 152 q0 156 149 211q41 14 74 14l49 -6q25 -6 47.5 -15.5t38.5 -25.5l39 -37l250 -291l209 133q-160 23 -279 135q-127 119 -127 275q0 147 120 257t292 112l246 2v165h-1135zM127 254q0 -53 39 -109q8 -14 33 -47q72 -90 143 -90l16 2q15 7 23 23l6 28q0 43 -16 70 q-37 90 -123 148q-41 25 -78 24l-16 -4l-13 -6l-10 -14z" />
<glyph unicode="&#x2000;" horiz-adv-x="891" />
<glyph unicode="&#x2001;" horiz-adv-x="1782" />
<glyph unicode="&#x2002;" horiz-adv-x="891" />
<glyph unicode="&#x2003;" horiz-adv-x="1782" />
<glyph unicode="&#x2004;" horiz-adv-x="594" />
<glyph unicode="&#x2005;" horiz-adv-x="445" />
<glyph unicode="&#x2006;" horiz-adv-x="297" />
<glyph unicode="&#x2007;" horiz-adv-x="297" />
<glyph unicode="&#x2008;" horiz-adv-x="222" />
<glyph unicode="&#x2009;" horiz-adv-x="356" />
<glyph unicode="&#x200a;" horiz-adv-x="99" />
<glyph unicode="&#x2010;" horiz-adv-x="327" d="M113 4v133h108v-133h-108z" />
<glyph unicode="&#x2011;" horiz-adv-x="327" d="M113 4v133h108v-133h-108z" />
<glyph unicode="&#x2012;" horiz-adv-x="327" d="M113 4v133h108v-133h-108z" />
<glyph unicode="&#x2013;" horiz-adv-x="962" d="M-25 1087v66h1006v-66h-154v-227h-280q-139 0 -244.5 -95t-105.5 -233q0 -129 99 -218t251 -89q51 0 111.5 20.5t107.5 59.5l-2 14l-2 17l-2 12l-2 17q0 14 -8 30l-13 35q-6 29 -22 51l-29 51l166 3l14 -31l13 -25l10 -28l8 -27l6 -27l6 -22l2 -27l2 -31q6 -78 -49 -180 q-49 -88 -135 -141h-59l43 45l35 63q8 25 22 74l8 78l-55 -49l-70 -41l-78 -23l-83 -8q-186 0 -322 119q-74 63 -106.5 136t-32.5 161q0 152 118.5 258t292.5 109l244 2v167h-711zM276 -246q0 137 199 211q66 16 127 17l150 -2l-2 -60h-148q-74 0 -131 -47 q-23 -23 -38 -53.5t-15 -65.5q0 -74 55 -129t129 -55h209v-62h-209q-90 0 -172 39q-92 41 -129 113q-25 45 -25 94z" />
<glyph unicode="&#x2014;" horiz-adv-x="1454" d="M-29 1087v66h1489v-66h-674v-245q129 102 265 102q102 0 189 -58.5t126 -158.5q27 -70 27 -133q0 -139 -99 -242q-51 -53 -112 -82q-53 -25 -131 -24h-27l-41 4l-25 8l-28 8l-58 25l-24 16v43l61 -12l80 -4q53 -2 101 16q76 31 118.5 97.5t42.5 146.5q0 96 -82 180 q-51 53 -137 72q-29 6 -55 6q-25 0 -37 -4q-18 0 -27 -4l-22 -4l-29 -6l-35 -15q-20 -6 -41 -22v-549l7 -41q6 -18 18 -31l35 -22l39 -7v-41h-344v44q61 -14 90 57l8 39v104q-137 -104 -264 -104q-147 0 -247.5 101.5t-100.5 246.5t102 246q53 53 113 78q70 31 133 26l39 -2 q14 0 35.5 -2t37.5 -10l37 -15q41 -16 62 -32l53 -43v247h-668zM174 594q0 -113 76 -187.5t186 -74.5h27q37 0 82 14t94 47v406l-49 24l-53 21l-54 10l-47 4q-53 5 -102 -20q-96 -37 -139 -140q-20 -49 -21 -104zM334 -121q0 88 92 158q68 49 166 63q29 4 67 4h150l-16 -53 l-134 -6q-66 -2 -131 -47q-23 -23 -38 -53.5t-15 -65.5q0 -74 55.5 -129t128.5 -55h209v-62h-209q-90 0 -172 39q-92 41 -129 113q-25 45 -24 94z" />
<glyph unicode="&#x2018;" />
<glyph unicode="&#x2019;" horiz-adv-x="962" d="M35 367v45h203q59 -48 157 -60q31 -4 68 -4q90 0 164.5 65.5t99.5 180.5l-20 -14l-21 -13l-24 -12l-27 -8l-29 -6q-16 0 -24 -4l-29 -5h-29q-170 0 -289.5 92.5t-119.5 227.5q0 129 116.5 229.5t280.5 100.5q166 0 282.5 -117t116.5 -287q0 -104 -28 -200 q-39 -129 -113 -211q-106 -117 -227 -111l-45 2l-41 4l-45 12l-54 25q57 -150 189 -205q53 -14 88 -14q154 0 270 96l31 -39q-18 -29 -53 -51q-12 -8 -25 -14q-27 -14 -49 -25l-92 -22l-101 -7q-55 -4 -115.5 9.5t-105.5 33.5q-102 45 -147 121q-102 170 -213 185zM238 858 q0 -63 16 -102q68 -166 227 -162q33 0 58 4q67 11 133 72q80 76 80 188q0 111 -69 193t-171 82q-109 0 -193 -80q-57 -53 -75 -138q-6 -29 -6 -57z" />
<glyph unicode="&#x201a;" horiz-adv-x="450" d="M-127 1491l145 2q0 -104 63 -182t159 -78q84 0 145 59.5t78 145.5q4 23 4 53l133 2q0 -92 -57 -172q-23 -31 -47 -47l-58 -39l-59 -27q-25 -10 -66 -18l-73 -4q-66 -4 -144 22q-98 31 -157 107q-66 78 -66 176zM14 1087v66h459v-66h-164l6 -880q8 -18 23 -31l33 -22 l41 -7v-41h-349v44q66 -12 97 57l8 39v841h-154z" />
<glyph unicode="&#x201c;" horiz-adv-x="1085" d="M47 410q0 43 21 82q35 72 118 102q55 18 105 18l141 2v123l-55 -16l-66 -4q-53 -4 -106 18q-90 33 -139 119q-18 41 -19 90q0 147 162 205q49 16 102 16t90 -12l11 -4q106 -37 147 -119q20 -43 21 -86v-330h202v473h-61v66h362v-66h-159v-839q0 -43 30 -74l35 -22l39 -7 v-39h-350v41q45 0 74 25q14 12 22 33l8 41v307h-202v-141q0 -82 -77 -143.5t-192 -61.5q-55 0 -106 16q-84 25 -139 107q-18 37 -19 80zM188 410q0 -78 35 -117q16 -25 39 -37q14 -6 49 -10q31 4 45 10l39 37q29 39 37 117v143h-98q-53 0 -98 -41q-23 -20 -37 -49 q-6 -18 -11 -53zM188 944q0 -82 35 -125q39 -53 88 -53q49 6 82 49q39 51 39 129q0 45 -10 68q-10 63 -64 94q-18 10 -47 14q-27 0 -49 -14l-39 -37q-16 -23 -26 -57z" />
<glyph unicode="&#x201d;" />
<glyph unicode="&#x201e;" horiz-adv-x="962" d="M96 594v45l19 -2h16l14 -2h13l26 -6l41 -8q27 -4 80 -17l105 -20l30 -2q109 -8 190 84t81 217q0 57 -23 100q-37 96 -158 141q-55 20 -108 21q-223 0 -307 -80l-19 39q168 117 344 121q82 2 156 -27q158 -59 221 -180q33 -63 33 -135q0 -115 -71.5 -209t-182.5 -133 q-86 -31 -156 -27l-39 2l-41 19q70 -43 142 -158q43 -70 69 -117l21 -37q8 -16 22 -26l21 -17l20 -4q66 0 103 49l30 -28q-10 -20 -28 -37l-43 -29l-55 -20l-58 -7q-88 0 -182 115q-37 41 -62 86q-147 264 -264 289z" />
<glyph unicode="&#x2022;" />
<glyph unicode="&#x2026;" horiz-adv-x="880" d="M47 268v39l16 -2h17l12 -2h12l29 -6l43 -6l143 -27l72 -8q59 0 104.5 17.5t86.5 50.5q80 68 80 165q0 102 -83 170t-188 70l-123 2v62h123q94 0 151.5 55t57.5 131q0 80 -70 129q-18 20 -71 41q-43 14 -86 14l-62 -6q-29 -2 -57.5 -12t-54.5 -27l-54 -33l-36 37 q113 100 282 103q135 2 232.5 -71t97.5 -175q0 -41 -16 -74q-29 -74 -117 -117q-29 -14 -94 -28q59 -10 124 -39q182 -80 183 -207q0 -127 -121 -219q-61 -47 -132 -67.5t-157 -20.5l-92 8q39 -18 84 -51q29 -27 96 -86l33 -29l27 -12q51 0 67 16l25 -28l-43 -23l-43 -12 l-53 -8l-58 -5q-88 -6 -246 187q-27 33 -69 59z" />
<glyph unicode="&#x202f;" horiz-adv-x="356" />
<glyph unicode="&#x2039;" horiz-adv-x="737" d="M25 918q-4 51 24 116q41 88 124 138.5t181 52.5q131 2 228.5 -88t97.5 -219q0 -123 -96 -213q-102 -96 -230 -93l-61 2q63 -33 135 -79t113 -84q96 -90 96 -164q0 -63 -76 -131q-80 -51 -186 -52q-186 0 -326 140l37 26q152 -106 268 -106q86 0 131 76q6 16 11 47 q0 117 -127 221q-47 37 -101 70q-78 45 -129 98q-23 23 -45 55l-31 45l-22 49l-12 45zM172 918q0 -109 51 -180.5t131 -69.5q39 2 70 16q33 23 59 55q55 70 56 179q0 102 -52 182q-27 39 -61.5 57.5t-71.5 18.5q-63 0 -131 -76q-51 -72 -51 -182z" />
<glyph unicode="&#x203a;" horiz-adv-x="0" d="M-1053 1485v37h166q39 0 64 -13q25 -4 53 -26l188 -223l62 -50q23 -10 45 -14l102 2v-45h-229q-16 4 -25 10l-12 6l-14 9l-13 8l-12 10l-217 246l-47 31l-19 6l-24 4zM-803 1595v43h221q31 0 58.5 -19.5t48.5 -55.5l133 -232q35 -59 94 -63l17 2v-41h-142q-63 0 -90 59 l-149 246q-23 51 -90 59zM-412 1571q0 45 23 80q49 96 203 125q14 2 57 4l59 2v-62h-61q-25 0 -50.5 -11t-45.5 -36q-35 -33 -43 -102q0 -139 141 -264l-143 2q-139 119 -140 262zM-190 1509l6 31l18 31l27 20l30 8q19 4 35 -6l29 -18l20 -29l7 -37l-7 -30l-18 -27l-29 -20 l-37 -7l-26 7l-29 18l-18 27z" />
<glyph unicode="&#x205f;" horiz-adv-x="445" />
<glyph unicode="&#x2122;" horiz-adv-x="983" d="M-2 1087v66h985v-66h-985zM39 752l2 34q16 68 72.5 108t126.5 40h34l730 -176v-221l-570 -205q18 -12 32.5 -30.5t29.5 -57.5l10 -62q0 -74 -31 -110q-18 -41 -90 -72l-57 -8q-96 0 -150 69l-26 54l-11 30l-2 33v33q6 20 31 70q39 53 98 73l650 230v110l-515 135l9 -26 l4 -35l-6 -49q-10 -88 -123 -141q-31 -10 -64 -11l-35 4q-98 12 -139 115q-12 41 -10 66zM109 760l2 -43l20 -39q14 -20 35 -31l53 -16h23q25 0 37 4l32 18l27 31l16 45l2 27q2 33 -28 73l-31 25l-41 16l-10 2h-8q-27 0 -43 -8l-37 -18q-18 -12 -30.5 -33.5t-18.5 -52.5z M203 166q2 -10 4 -12l6 -13q8 -25 16 -39l29 -28l33 -19l37 -4l39 10q20 5 30 17l27 33l8 16l8 18l4 21l2 20l-6 37l-18 31l-29 25l-35 16l-36 6l-25 -2l-23 -6q-72 -20 -71 -107v-20z" />
<glyph unicode="&#x25fc;" horiz-adv-x="1157" d="M0 0v1157h1157v-1157h-1157z" />
</font>
</defs>
</svg>
